<svg width="46" height="46" viewBox="0 0 46 46" fill="none" xmlns="http://www.w3.org/2000/svg">
<g clip-path="url(#clip0)">
<path d="M38.8081 29.7813C39.3457 29.7813 39.8788 29.6868 40.4053 29.4976C44.0246 28.1969 45.8774 22.7421 45.9545 22.5106C46.0413 22.2495 46.0039 21.963 45.8528 21.7332C45.7016 21.5033 45.4535 21.3554 45.1794 21.3317C42.391 21.0912 40.1159 21.5451 38.4042 22.6822C38.5415 21.7706 38.6202 20.8946 38.6574 20.0727C38.6719 20.0728 38.6863 20.0729 38.7007 20.0729C39.9474 20.0729 41.019 19.6677 41.8944 18.8634C44.4966 16.4727 44.2625 11.3406 44.2513 11.1232C44.2366 10.8401 44.0891 10.5804 43.8534 10.4227C43.6176 10.2652 43.3212 10.2282 43.054 10.3228C40.5626 11.2056 39.0685 12.441 38.1772 13.6643C38.0574 13.0488 37.9382 12.5537 37.847 12.2065C38.5612 11.1658 38.814 10.0589 38.5985 8.90716C37.9867 5.63738 33.6505 3.32165 33.4662 3.22462C33.2219 3.09596 32.932 3.08698 32.6801 3.2C32.4282 3.31303 32.2422 3.53548 32.1757 3.80348C31.5179 6.45577 31.7286 8.66593 32.8021 10.3723C33.8652 12.0624 35.4734 12.7387 36.186 12.9663C36.4127 13.8944 36.756 15.5931 36.8583 17.6961C34.8885 15.3849 31.8531 14.0304 31.815 14.0191C31.5717 13.9466 31.3092 13.9805 31.092 14.1121C30.875 14.2439 30.7238 14.4614 30.676 14.7107C30.0596 17.9218 30.4455 20.5418 31.8228 22.4979C33.1981 24.451 35.1603 25.1345 35.9752 25.3435C35.9136 25.5489 34.8323 28.353 34.2579 29.3493C33.521 25.7312 29.7048 22.5599 29.5247 22.4121C29.3101 22.236 29.0261 22.1691 28.7554 22.2306C28.4847 22.2922 28.2576 22.4755 28.1403 22.727C26.7147 25.7853 26.439 28.5152 27.3208 30.8408C27.9878 32.6 29.176 33.7224 30.0535 34.3536C28.8461 35.3817 27.4824 36.31 25.9647 37.1367C26.2345 36.5271 26.4146 35.8509 26.4146 35.1321C26.4146 32.3236 23.6671 30.1667 23.5501 30.0764C23.2264 29.8261 22.7745 29.8261 22.4509 30.0764C22.3339 30.1667 19.5864 32.3235 19.5864 35.132C19.5864 35.8508 19.7665 36.5269 20.0363 37.1367C18.5186 36.3099 17.1548 35.3816 15.9474 34.3535C16.8249 33.7222 18.0131 32.5999 18.6801 30.8407C19.5619 28.515 19.2862 25.7851 17.8606 22.7269C17.7433 22.4752 17.5162 22.2919 17.2455 22.2304C16.9748 22.1689 16.6908 22.2359 16.4762 22.412C16.2961 22.5598 12.48 25.731 11.743 29.3491C11.1686 28.3527 10.0873 25.5488 10.0257 25.3433C10.8406 25.1343 12.8029 24.4508 14.1781 22.4978C15.5554 20.5417 15.9412 17.9216 15.3249 14.7105C15.277 14.4612 15.1259 14.2437 14.9089 14.1119C14.6919 13.9803 14.4291 13.9464 14.1859 14.0189C14.1479 14.0302 11.1125 15.3846 9.14261 17.696C9.24503 15.5927 9.58824 13.8941 9.815 12.9661C10.5276 12.7385 12.1358 12.0622 13.1989 10.3722C14.2723 8.66575 14.4831 6.45559 13.8253 3.8033C13.7588 3.53539 13.5728 3.31285 13.3209 3.19982C13.0691 3.0868 12.7791 3.09587 12.5348 3.22444C12.3506 3.32147 8.01435 5.63729 7.4026 8.90698C7.18707 10.0587 7.4398 11.1657 8.15406 12.2063C8.06287 12.5536 7.94365 13.0486 7.82388 13.6641C6.93263 12.4408 5.43853 11.2055 2.94706 10.3226C2.67987 10.2279 2.38338 10.265 2.14772 10.4226C1.91197 10.5802 1.76445 10.8399 1.7498 11.1231C1.73857 11.3404 1.50453 16.4726 4.10668 18.8632C4.98221 19.6676 6.05351 20.0727 7.30036 20.0727C7.31474 20.0727 7.3292 20.0726 7.34358 20.0725C7.38077 20.8944 7.45948 21.7703 7.59685 22.682C5.88505 21.5449 3.61038 21.0908 0.821627 21.3316C0.547513 21.3553 0.299364 21.5032 0.148247 21.7331C-0.00296082 21.963 -0.0404257 22.2494 0.0465432 22.5105C0.123629 22.742 1.97639 28.1968 5.59566 29.4975C6.12224 29.6868 6.65519 29.7812 7.19291 29.7812C7.98875 29.7812 8.79474 29.5742 9.60459 29.1611C9.84816 29.6512 11.0715 31.6609 11.4373 32.1559C9.36524 31.8597 6.67604 32.2708 3.34229 34.2952C3.10815 34.4374 2.95165 34.6786 2.91733 34.9503C2.88292 35.222 2.97438 35.4947 3.16574 35.6906C3.36116 35.8909 7.79037 40.3751 12.1661 40.3751C12.3854 40.3751 12.6049 40.3638 12.8234 40.34C14.5906 40.1489 16.0575 39.202 17.188 37.5244C18.239 38.2167 19.3712 38.8535 20.5835 39.4344C19.5628 39.7712 18.4957 40.0764 17.3827 40.3495C16.9009 40.4677 16.606 40.9543 16.7244 41.4362C16.825 41.8463 17.1921 42.1207 17.5962 42.1207C17.6671 42.1207 17.7391 42.1122 17.8111 42.0946C19.6594 41.641 21.3898 41.1015 23.0007 40.4773C24.6116 41.1015 26.3421 41.641 28.1902 42.0946C28.2622 42.1122 28.3343 42.1207 28.4051 42.1207C28.8093 42.1207 29.1764 41.8461 29.277 41.4362C29.3952 40.9543 29.1005 40.4678 28.6186 40.3495C27.5056 40.0764 26.4386 39.7712 25.4178 39.4344C26.6302 38.8535 27.7624 38.2167 28.8134 37.5244C29.9438 39.202 31.4108 40.1488 33.1779 40.34C33.3968 40.3638 33.6157 40.3751 33.8352 40.3751C38.2107 40.3751 42.6401 35.891 42.8356 35.6906C43.027 35.4946 43.1184 35.222 43.084 34.9503C43.0496 34.6786 42.8931 34.4374 42.6591 34.2952C39.3253 32.2708 36.6362 31.8597 34.564 32.1559C34.9295 31.6609 36.1529 29.6512 36.3965 29.1611C37.2064 29.5743 38.0122 29.7813 38.8081 29.7813ZM42.4359 12.5203C42.329 14.1221 41.9089 16.412 40.6766 17.5421C40.1431 18.0313 39.4938 18.2736 38.7036 18.2755C38.5576 17.0827 38.6855 14.3259 42.4359 12.5203ZM38.6205 24.8103C39.8818 23.748 41.5201 23.0653 43.767 23.0653C43.7795 23.0653 43.7918 23.0653 43.8044 23.0654C43.0616 24.7228 41.633 27.147 39.7977 27.8065C38.9676 28.105 38.1145 28.0228 37.2014 27.5544C37.2254 27.391 37.7731 25.5239 38.6205 24.8103ZM36.4126 11.1182C36.4058 11.1218 36.3989 11.1255 36.3922 11.1292C35.8327 10.8958 34.9388 10.3941 34.3231 9.41531C33.6779 8.38975 33.4634 7.06365 33.6814 5.46236C34.9221 6.31561 36.5536 7.74026 36.8327 9.24003C36.9521 9.88205 36.8145 10.5007 36.4126 11.1182ZM7.29785 18.2755C6.50758 18.2736 5.85801 18.0313 5.32442 17.5421C4.09213 16.4121 3.67202 14.1221 3.5651 12.5203C7.31842 14.3274 7.44366 17.0865 7.29785 18.2755ZM6.20579 27.8074C4.37576 27.1514 2.9441 24.7248 2.1984 23.0654C2.21016 23.0653 2.2222 23.0653 2.23397 23.0653C4.48061 23.0653 6.20858 23.6503 7.3805 24.8103C7.95568 25.3796 8.30895 26.0039 8.52206 26.5433C8.56689 26.6766 8.7756 27.3909 8.79968 27.5544C7.88767 28.0224 7.03523 28.1047 6.20579 27.8074ZM9.16831 9.24003C9.44736 7.74035 11.0789 6.31561 12.3196 5.46236C12.536 7.05206 12.3261 8.3707 11.6918 9.39321C11.0744 10.3882 10.1676 10.896 9.60396 11.1307C9.6001 11.1285 9.59632 11.1265 9.59237 11.1244C9.18735 10.5049 9.04846 9.88412 9.16831 9.24003ZM9.37908 20.9116C9.76487 18.9296 12.1515 17.212 13.7441 16.2697C13.972 18.4043 13.6305 20.1399 12.7246 21.4409C11.8348 22.7187 10.5806 23.284 9.88724 23.5118C9.59075 23.0438 9.17954 21.9369 9.37908 20.9116ZM12.6328 38.5534C9.91221 38.8482 6.8037 36.5192 5.32335 35.2387C7.93754 33.8751 10.2472 33.627 12.2951 34.1967C13.9507 34.6572 15.3805 36.4081 15.5709 36.7026C14.7657 37.8194 13.8007 38.4262 12.6328 38.5534ZM14.6011 33.0942C14.5624 33.0575 13.4658 31.9956 13.4177 30.5749C13.3402 28.2886 15.47 25.871 16.7139 24.6352C17.4965 26.7465 17.5966 28.607 17.0095 30.1782C16.4204 31.7549 15.2528 32.6795 14.6011 33.0942ZM23.002 38.2636C22.3601 37.6154 21.3833 36.4177 21.3833 35.132C21.3833 33.8371 22.3585 32.6439 23.0004 31.9988C23.6428 32.6444 24.6176 33.8372 24.6176 35.132C24.6176 36.4258 23.644 37.6181 23.002 38.2636ZM28.9915 30.1782C28.4044 28.6071 28.5045 26.7466 29.2871 24.6353C30.5311 25.871 32.616 28.2875 32.5833 30.575C32.5711 31.4275 32.2563 32.1831 31.6251 32.8663C31.5875 32.9058 31.5499 32.9454 31.5119 32.9846C31.4755 33.0214 31.4383 33.0578 31.4 33.0941C30.7468 32.6784 29.5801 31.754 28.9915 30.1782ZM40.684 35.242C38.9965 36.7011 35.9193 38.83 33.3711 38.5536C32.2019 38.4271 31.2361 37.8203 30.4302 36.7025C30.6206 36.408 32.2545 34.6684 33.7059 34.1966C35.7292 33.539 38.0672 33.8757 40.684 35.242ZM33.292 21.4632C32.3744 20.1598 32.0277 18.4165 32.2569 16.2695C33.8495 17.2119 36.1248 18.9545 36.6219 20.9115C36.8215 21.6973 36.4092 23.0463 36.1116 23.5152C35.4253 23.2933 34.1908 22.7396 33.292 21.4632Z" fill="#858585"/>
</g>
<defs>
<clipPath id="clip0">
<rect width="46" height="46" fill="white"/>
</clipPath>
</defs>
</svg>
