<svg width="62" height="62" viewBox="0 0 62 62" fill="none" xmlns="http://www.w3.org/2000/svg">
<path d="M46.5 10.3337H43.9167V7.75033C43.9167 7.06518 43.6445 6.4081 43.16 5.92363C42.6756 5.43916 42.0185 5.16699 41.3333 5.16699C40.6482 5.16699 39.9911 5.43916 39.5066 5.92363C39.0222 6.4081 38.75 7.06518 38.75 7.75033V10.3337H23.25V7.75033C23.25 7.06518 22.9778 6.4081 22.4934 5.92363C22.0089 5.43916 21.3518 5.16699 20.6667 5.16699C19.9815 5.16699 19.3244 5.43916 18.84 5.92363C18.3555 6.4081 18.0833 7.06518 18.0833 7.75033V10.3337H15.5C13.4446 10.3337 11.4733 11.1502 10.0199 12.6036C8.56652 14.057 7.75 16.0282 7.75 18.0837V49.0837C7.75 51.1391 8.56652 53.1103 10.0199 54.5637C11.4733 56.0171 13.4446 56.8337 15.5 56.8337H46.5C48.5554 56.8337 50.5267 56.0171 51.9801 54.5637C53.4335 53.1103 54.25 51.1391 54.25 49.0837V18.0837C54.25 16.0282 53.4335 14.057 51.9801 12.6036C50.5267 11.1502 48.5554 10.3337 46.5 10.3337ZM15.5 15.5003H18.0833V18.0837C18.0833 18.7688 18.3555 19.4259 18.84 19.9104C19.3244 20.3948 19.9815 20.667 20.6667 20.667C21.3518 20.667 22.0089 20.3948 22.4934 19.9104C22.9778 19.4259 23.25 18.7688 23.25 18.0837V15.5003H38.75V18.0837C38.75 18.7688 39.0222 19.4259 39.5066 19.9104C39.9911 20.3948 40.6482 20.667 41.3333 20.667C42.0185 20.667 42.6756 20.3948 43.16 19.9104C43.6445 19.4259 43.9167 18.7688 43.9167 18.0837V15.5003H46.5C47.1851 15.5003 47.8422 15.7725 48.3267 16.257C48.8112 16.7414 49.0833 17.3985 49.0833 18.0837V28.417H12.9167V18.0837C12.9167 17.3985 13.1888 16.7414 13.6733 16.257C14.1578 15.7725 14.8149 15.5003 15.5 15.5003ZM46.5 51.667H15.5C14.8149 51.667 14.1578 51.3948 13.6733 50.9104C13.1888 50.4259 12.9167 49.7688 12.9167 49.0837V33.5837H49.0833V49.0837C49.0833 49.7688 48.8112 50.4259 48.3267 50.9104C47.8422 51.3948 47.1851 51.667 46.5 51.667Z" fill="#EA97AD"/>
<path d="M20.6668 43.9167C22.0936 43.9167 23.2502 42.7601 23.2502 41.3333C23.2502 39.9066 22.0936 38.75 20.6668 38.75C19.2401 38.75 18.0835 39.9066 18.0835 41.3333C18.0835 42.7601 19.2401 43.9167 20.6668 43.9167Z" fill="#EA97AD"/>
<path d="M41.3332 38.75H30.9998C30.3147 38.75 29.6576 39.0222 29.1731 39.5066C28.6887 39.9911 28.4165 40.6482 28.4165 41.3333C28.4165 42.0185 28.6887 42.6756 29.1731 43.16C29.6576 43.6445 30.3147 43.9167 30.9998 43.9167H41.3332C42.0183 43.9167 42.6754 43.6445 43.1599 43.16C43.6443 42.6756 43.9165 42.0185 43.9165 41.3333C43.9165 40.6482 43.6443 39.9911 43.1599 39.5066C42.6754 39.0222 42.0183 38.75 41.3332 38.75Z" fill="#EA97AD"/>
</svg>
