<svg width="62" height="62" viewBox="0 0 62 62" fill="none" xmlns="http://www.w3.org/2000/svg">
<path d="M30.9998 5.16699C25.8905 5.16699 20.8959 6.68209 16.6476 9.52069C12.3993 12.3593 9.08822 16.3939 7.13296 21.1143C5.1777 25.8348 4.66611 31.029 5.6629 36.0402C6.65968 41.0513 9.12007 45.6544 12.7329 49.2673C16.3458 52.8801 20.9488 55.3405 25.96 56.3373C30.9712 57.3341 36.1654 56.8225 40.8858 54.8672C45.6063 52.912 49.6409 49.6008 52.4795 45.3526C55.3181 41.1043 56.8332 36.1097 56.8332 31.0003C56.8332 27.6078 56.165 24.2486 54.8667 21.1143C53.5685 17.9801 51.6656 15.1322 49.2668 12.7334C46.8679 10.3346 44.0201 8.43168 40.8858 7.13344C37.7516 5.83519 34.3923 5.16699 30.9998 5.16699ZM30.9998 51.667C26.9124 51.667 22.9167 50.4549 19.5181 48.184C16.1194 45.9132 13.4705 42.6855 11.9063 38.9091C10.3421 35.1328 9.93286 30.9774 10.7303 26.9685C11.5277 22.9595 13.496 19.2771 16.3863 16.3868C19.2766 13.4965 22.959 11.5282 26.968 10.7308C30.9769 9.93334 35.1323 10.3426 38.9086 11.9068C42.685 13.471 45.9127 16.1199 48.1835 19.5185C50.4544 22.9172 51.6665 26.9128 51.6665 31.0003C51.6665 36.4815 49.4891 41.7381 45.6134 45.6139C41.7376 49.4896 36.481 51.667 30.9998 51.667Z" fill="#EA97AD"/>
<path d="M40.5066 21.4941C40.1529 21.113 39.6925 20.8474 39.1855 20.7322C38.6785 20.617 38.1486 20.6574 37.6649 20.8482L26.7891 25.2399C26.4694 25.3698 26.1789 25.5625 25.9349 25.8065C25.6908 26.0505 25.4982 26.341 25.3683 26.6607L20.8474 37.6657C20.6871 38.0986 20.6456 38.5665 20.7274 39.0209C20.8092 39.4752 21.0112 39.8993 21.3124 40.2491H21.4416C21.6498 40.5469 21.9184 40.7975 22.23 40.9845C22.5416 41.1715 22.8892 41.2906 23.2499 41.3341C23.5858 41.3382 23.9192 41.2768 24.2316 41.1532L35.1074 36.7616C35.4272 36.6316 35.7176 36.439 35.9617 36.195C36.2057 35.9509 36.3984 35.6605 36.5283 35.3407L41.0491 24.3357C41.2526 23.862 41.3096 23.3382 41.2129 22.8318C41.1163 22.3254 40.8703 21.8595 40.5066 21.4941ZM27.8999 34.1266L29.7341 29.6316L34.0999 27.8749L32.2658 32.3699L27.8999 34.1266Z" fill="#EA97AD"/>
</svg>
