<svg width="62" height="62" viewBox="0 0 62 62" fill="none" xmlns="http://www.w3.org/2000/svg">
<path d="M49.0829 53.6045L43.1154 30.3545C45.3217 27.6094 46.5166 24.1888 46.4995 20.667C46.4995 16.5561 44.8665 12.6137 41.9597 9.70684C39.0529 6.80002 35.1104 5.16699 30.9995 5.16699C26.8887 5.16699 22.9462 6.80002 20.0394 9.70684C17.1326 12.6137 15.4995 16.5561 15.4995 20.667C15.4925 24.216 16.7158 27.6578 18.9612 30.4062L12.9162 53.6045C12.7876 54.1003 12.8094 54.6232 12.9786 55.1066C13.1479 55.5901 13.457 56.0123 13.8668 56.3196C14.2766 56.627 14.7685 56.8056 15.28 56.8327C15.7915 56.8598 16.2996 56.7343 16.7395 56.472L30.5087 48.3862L45.182 56.4978C45.5785 56.7371 46.0369 56.8539 46.4995 56.8337C46.9007 56.8465 47.2993 56.7656 47.6637 56.5975C48.0282 56.4295 48.3484 56.1788 48.5992 55.8654C48.8499 55.552 49.0241 55.1846 49.1081 54.7921C49.192 54.3996 49.1834 53.993 49.0829 53.6045ZM30.9995 10.3337C33.0433 10.3337 35.0411 10.9397 36.7404 12.0751C38.4397 13.2106 39.7642 14.8244 40.5463 16.7126C41.3284 18.6008 41.533 20.6785 41.1343 22.6829C40.7356 24.6874 39.7515 26.5286 38.3063 27.9738C36.8612 29.4189 35.02 30.4031 33.0155 30.8018C31.011 31.2005 28.9333 30.9959 27.0452 30.2137C25.157 29.4316 23.5431 28.1072 22.4077 26.4079C21.2723 24.7086 20.6662 22.7107 20.6662 20.667C20.6662 17.9264 21.7549 15.2981 23.6928 13.3602C25.6307 11.4223 28.259 10.3337 30.9995 10.3337ZM31.8004 43.1678C31.4077 42.9411 30.9622 42.8217 30.5087 42.8217C30.0552 42.8217 29.6098 42.9411 29.217 43.1678L19.5295 48.8512L23.2495 34.1262C25.5761 35.4634 28.2127 36.1671 30.8962 36.1671C33.5797 36.1671 36.2163 35.4634 38.5429 34.1262L42.4954 49.0837L31.8004 43.1678Z" fill="#EA97AD"/>
</svg>
