<svg width="46" height="46" viewBox="0 0 46 46" fill="none" xmlns="http://www.w3.org/2000/svg">
<path d="M23.6738 7.36719C23.2527 7.14258 22.7473 7.14258 22.3262 7.36719L2.91992 17.4297L2.21552 17.7883C1.48413 18.1606 1.48792 19.2069 2.22199 19.5739L2.875 19.9004V32.0293C2.01587 32.5291 1.4375 33.4387 1.4375 34.5C1.4375 36.0891 2.72339 37.375 4.3125 37.375C5.90161 37.375 7.1875 36.0891 7.1875 34.5C7.1875 33.4387 6.60913 32.5291 5.75 32.0293V21.3828L8.625 22.8652V30.1875C8.625 30.822 8.91699 31.3948 9.25391 31.7598C9.59082 32.1248 10.0007 32.3438 10.4219 32.5684C11.2698 33.012 12.2749 33.3264 13.5215 33.6016C16.0146 34.1575 19.3389 34.5 23 34.5C26.6611 34.5 29.9854 34.1575 32.4785 33.6016C33.7251 33.3264 34.7302 33.012 35.5781 32.5684C35.9993 32.3438 36.4092 32.1248 36.7461 31.7598C37.083 31.3948 37.375 30.822 37.375 30.1875V22.8652L43.0801 19.9453L43.8003 19.5787C44.5287 19.2078 44.5287 18.1672 43.8003 17.7963L43.0801 17.4297L23.6738 7.36719ZM21.6173 10.9603C22.4841 10.5101 23.5159 10.5101 24.3827 10.9603L37.5353 17.7909C38.2575 18.166 38.2532 19.2006 37.5279 19.5696L36.7012 19.9902C36.3755 19.6477 35.9824 19.395 35.5781 19.1816C34.7358 18.738 33.7251 18.4236 32.4785 18.1484C29.991 17.5925 26.678 17.25 23 17.25C19.322 17.25 16.009 17.5925 13.5215 18.1484C12.2749 18.4236 11.2642 18.738 10.4219 19.1816C10.0176 19.395 9.62451 19.6477 9.29883 19.9902L8.47214 19.5696C7.74683 19.2006 7.74251 18.166 8.46471 17.7909L21.6173 10.9603ZM23 20.125C26.5095 20.125 29.6653 20.4451 31.8496 20.9336C32.939 21.175 33.8149 21.4558 34.2754 21.6973C34.4214 21.7759 34.4438 21.832 34.5 21.877V27.3574C33.8992 27.1384 33.2422 26.9419 32.4785 26.7734C29.9854 26.2175 26.6611 25.875 23 25.875C19.3389 25.875 16.0146 26.2175 13.5215 26.7734C12.7578 26.9419 12.1008 27.1384 11.5 27.3574V21.877C11.5562 21.832 11.5786 21.7759 11.7246 21.6973C12.1851 21.4558 13.061 21.175 14.1504 20.9336C16.3347 20.4451 19.4905 20.125 23 20.125ZM23 28.75C26.4871 28.75 29.6597 29.0701 31.8496 29.5586C32.7593 29.7607 33.332 29.9741 33.8262 30.1875C33.332 30.4009 32.7593 30.6143 31.8496 30.8164C29.6597 31.3049 26.4871 31.625 23 31.625C19.5129 31.625 16.3403 31.3049 14.1504 30.8164C13.2407 30.6143 12.668 30.4009 12.1738 30.1875C12.668 29.9741 13.2407 29.7607 14.1504 29.5586C16.3403 29.0701 19.5129 28.75 23 28.75Z" fill="#858585"/>
</svg>
