<svg width="143" height="322" viewBox="0 0 143 322" fill="none" xmlns="http://www.w3.org/2000/svg">
<mask id="mask0" mask-type="alpha" maskUnits="userSpaceOnUse" x="0" y="0" width="143" height="322">
<rect width="143" height="322" rx="12" fill="#EDEDED" fill-opacity="0.45"/>
</mask>
<!-- <g mask="url(#mask0)">
<g opacity="0.1"> -->
<path d="M94.0496 167.2C92.5499 167.2 91.3331 165.96 91.3331 164.433C91.3331 162.906 92.5505 161.667 94.0496 161.667C101.904 161.667 112.854 150.401 116.413 146.06C117.375 144.887 119.086 144.73 120.238 145.709C121.39 146.689 121.545 148.429 120.586 149.604C119.114 151.405 105.848 167.2 94.0496 167.2Z" />
<path d="M151.101 225.298H85.9002C84.4005 225.298 83.1837 224.058 83.1837 222.532V178.266C83.1837 176.739 84.4011 175.499 85.9002 175.499H151.101C152.6 175.499 153.817 176.739 153.817 178.266V222.532C153.817 224.059 152.6 225.298 151.101 225.298ZM88.6167 219.765H148.383V181.032H88.6167V219.765Z" />
<path d="M110.35 214.232H99.4835C97.9837 214.232 96.767 212.992 96.767 211.465V189.332C96.767 187.805 97.9843 186.566 99.4835 186.566H110.35C111.85 186.566 113.066 187.805 113.066 189.332V211.465C113.066 212.993 111.85 214.232 110.35 214.232ZM102.2 208.698H107.634V192.099H102.2V208.698Z" />
<path d="M137.516 214.232H126.65C125.15 214.232 123.933 212.992 123.933 211.465V189.332C123.933 187.805 125.151 186.566 126.65 186.566H137.516C139.016 186.566 140.233 187.805 140.233 189.332V211.465C140.233 212.993 139.016 214.232 137.516 214.232ZM129.366 208.698H134.8V192.099H129.366V208.698Z" />
<path d="M85.8997 208.698H39.7165C38.2167 208.698 37 207.459 37 205.932V194.866C37 193.338 38.2173 192.099 39.7165 192.099H85.8997C87.3994 192.099 88.6162 193.339 88.6162 194.866V205.932C88.6162 207.459 87.3994 208.698 85.8997 208.698ZM42.433 203.166H83.1832V197.632H42.433V203.166Z" />
<path d="M197.284 208.698H151.1C149.601 208.698 148.384 207.459 148.384 205.932V194.866C148.384 193.338 149.601 192.099 151.1 192.099H197.284C198.783 192.099 200 193.339 200 194.866V205.932C200 207.459 198.783 208.698 197.284 208.698ZM153.817 203.166H194.567V197.632H153.817V203.166Z" />
<path d="M99.4838 203.165H85.9002C84.4005 203.165 83.1837 201.926 83.1837 200.399C83.1837 198.872 84.4011 197.633 85.9002 197.633H99.4838C100.984 197.633 102.2 198.872 102.2 200.399C102.2 201.926 100.983 203.165 99.4838 203.165Z" />
<path d="M126.65 203.165H110.35C108.85 203.165 107.633 201.926 107.633 200.399C107.633 198.872 108.851 197.633 110.35 197.633H126.65C128.15 197.633 129.366 198.872 129.366 200.399C129.366 201.926 128.149 203.165 126.65 203.165Z" />
<path d="M151.1 203.165H137.516C136.017 203.165 134.8 201.926 134.8 200.399C134.8 198.872 136.017 197.633 137.516 197.633H151.1C152.6 197.633 153.817 198.872 153.817 200.399C153.817 201.926 152.599 203.165 151.1 203.165Z" />
<path d="M156.913 300C156.424 300 155.93 299.939 155.435 299.817C153.322 299.286 151.643 297.632 151.059 295.504C145.571 275.596 132.54 241.898 118.499 241.898C104.459 241.898 91.4279 275.596 85.9427 295.504C85.3561 297.632 83.68 299.284 81.5661 299.817C79.442 300.346 77.2766 299.709 75.7797 298.099C63.0846 284.457 64.1197 256.783 64.1713 255.612C64.1662 246.277 66.7142 235.175 68.8521 227.526C70.5037 221.613 69.4147 215.275 65.8635 210.14C65.3256 209.362 64.8095 208.585 64.3151 207.808C64.2882 207.763 64.1467 207.525 64.122 207.481C63.6414 206.626 63.595 205.483 64.0814 204.631C64.5677 203.779 65.4098 203.165 66.3768 203.165L83.1832 203.166V197.632L60.8602 197.631C59.7466 197.631 58.7441 196.94 58.3339 195.883C54.9953 187.293 53.2996 178.143 53.2996 168.695V161.666C53.2996 139.782 76.4024 134 88.6163 134C104.093 134 114.436 140.88 118.499 144.175C122.564 140.88 132.906 134 148.383 134C160.597 134 183.7 139.782 183.7 161.666V168.696C183.7 178.144 182.005 187.293 178.663 195.884C178.256 196.941 177.253 197.632 176.139 197.632L153.817 197.632V203.166L170.621 203.165C171.613 203.165 172.528 203.716 173.004 204.604C173.482 205.49 173.444 206.571 172.912 207.423L172.686 207.805C172.192 208.585 171.673 209.362 171.135 210.142C167.581 215.277 166.492 221.615 168.146 227.528C170.284 235.175 172.832 246.277 172.832 255.731C172.881 256.782 173.916 284.456 161.221 298.099C160.073 299.336 158.53 300 156.913 300ZM118.5 236.365C138.823 236.365 152.561 280.487 156.289 294.01C156.37 294.309 156.607 294.412 156.737 294.445C156.954 294.5 157.133 294.448 157.275 294.296C168.405 282.338 167.411 256.119 167.4 255.854C167.397 246.92 164.96 236.355 162.918 229.042C161 222.173 161.975 214.869 165.58 208.7L151.1 208.698C149.601 208.698 148.384 207.459 148.384 205.932V194.866C148.384 193.338 149.601 192.099 151.1 192.099L174.265 192.1C176.922 184.669 178.267 176.807 178.267 168.698V161.668C178.267 139.847 149.6 139.538 148.381 139.535C130.812 139.535 120.519 149.694 120.416 149.796C119.353 150.866 117.634 150.866 116.58 149.791C116.482 149.694 106.189 139.535 88.6168 139.535C87.3995 139.538 58.7337 139.847 58.7337 161.668V168.698C58.7337 176.807 60.0782 184.669 62.7352 192.1H85.9003C87.4001 192.1 88.6168 193.34 88.6168 194.867L88.6162 205.932C88.6162 207.459 87.3994 208.698 85.8997 208.698L71.4174 208.698C75.0224 214.868 76.0002 222.172 74.0794 229.041C72.0366 236.353 69.5997 246.916 69.5997 255.731C69.586 256.115 68.6161 282.359 79.7221 294.292C79.8659 294.447 80.048 294.493 80.2629 294.444C80.3958 294.411 80.6295 294.311 80.7108 294.009C84.4384 280.487 98.1767 236.365 118.5 236.365Z" />
<!-- </g>
</g> -->
</svg>
