<svg width="143" height="322" viewBox="0 0 143 322" fill="none" xmlns="http://www.w3.org/2000/svg">
<mask id="mask0" mask-type="alpha" maskUnits="userSpaceOnUse" x="0" y="0" width="143" height="322">
<rect width="143" height="322" rx="12" fill="#EDEDED" fill-opacity="0.45"/>
</mask>
<g mask="url(#mask0)">
<path d="M86.6164 167.821C84.9338 167.821 83.5687 166.447 83.5687 164.747C83.5687 163.048 84.9344 161.674 86.6164 161.674C97.9544 161.674 108.455 147.68 108.558 147.539C109.567 146.184 111.475 145.895 112.825 146.918C114.172 147.932 114.45 149.859 113.444 151.218C112.938 151.897 100.975 167.821 86.6164 167.821Z" />
<path d="M155.829 224.954C155.594 224.954 155.36 224.926 155.125 224.871L134.682 219.987C133.043 219.597 132.031 217.94 132.418 216.29C132.804 214.636 134.454 213.616 136.087 214.009L156.53 218.893C158.169 219.283 159.182 220.94 158.795 222.59C158.459 224.001 157.206 224.954 155.829 224.954Z" />
<path d="M135.383 220.071C134.173 220.071 133.03 219.342 132.551 218.137L126.455 202.77C125.83 201.193 126.589 199.404 128.153 198.774C129.722 198.147 131.49 198.909 132.115 200.489L138.211 215.857C138.836 217.434 138.077 219.222 136.513 219.852C136.145 220.003 135.761 220.071 135.383 220.071Z" />
<path d="M135.383 232.365C134.652 232.365 133.917 232.1 133.331 231.562C132.088 230.419 131.997 228.473 133.13 227.219L142.268 217.108C143.401 215.86 145.331 215.761 146.574 216.908C147.818 218.051 147.909 219.997 146.776 221.251L137.638 231.363C137.035 232.026 136.209 232.365 135.383 232.365Z" />
<path d="M62.2366 244.658C61.1183 244.658 60.0424 244.038 59.509 242.959C58.7564 241.441 59.3657 239.593 60.8715 238.835L79.1591 229.614C80.6617 228.858 82.4934 229.466 83.2492 230.988C84.0019 232.506 83.3926 234.354 81.8867 235.112L63.5992 244.333C63.1602 244.554 62.6936 244.658 62.2366 244.658Z" />
<path d="M80.521 235.438C78.8384 235.438 77.4732 234.064 77.4732 232.365V223.144C77.4732 221.445 78.839 220.071 80.521 220.071C82.2036 220.071 83.5687 221.445 83.5687 223.144V232.365C83.5687 234.064 82.2036 235.438 80.521 235.438Z" />
<path d="M148.136 300C147.63 300 147.121 299.935 146.608 299.809C144.374 299.256 142.604 297.52 141.991 295.273C132.789 261.655 121.204 241.584 110.999 241.584C100.795 241.584 89.2097 261.654 80.0081 295.275C79.3924 297.519 77.6249 299.258 75.3877 299.812C73.1568 300.365 70.8887 299.68 69.3225 297.986C56.6734 284.306 57.7036 256.62 57.7557 255.449C57.7525 246.136 60.2796 235.047 62.4005 227.409C64.0131 221.597 62.9494 215.373 59.4839 210.326C58.9505 209.555 58.4415 208.774 57.9479 208C50.7823 196.68 47 183.157 47 168.877V161.877C47 139.825 70.0943 134 82.307 134C97.1593 134 106.819 141.084 111 144.976C115.185 141.081 124.841 134 139.693 134C151.906 134 175 139.827 175 161.877V168.878C175 183.158 171.214 196.681 164.055 207.995C163.558 208.776 163.046 209.553 162.515 210.33C159.05 215.374 157.99 221.598 159.599 227.41C161.72 235.048 164.247 246.137 164.247 255.582C164.296 256.62 165.326 284.307 152.677 297.987C151.47 299.293 149.843 300 148.136 300ZM82.307 140.147C81.118 140.15 53.0961 140.464 53.0961 161.877V168.878C53.0961 181.984 56.5493 194.364 63.0844 204.685C63.5355 205.392 64.0047 206.108 64.4957 206.821C69.0005 213.38 70.3752 221.485 68.2723 229.06C66.2548 236.33 63.8498 246.828 63.8498 255.576C63.8376 255.969 62.8806 281.999 73.7828 293.792L77.0716 294.455L74.1331 293.638C81.3995 267.089 93.6945 235.438 111.001 235.438C128.307 235.438 140.602 267.089 147.868 293.645L148.218 293.798C159.145 281.977 158.167 255.976 158.155 255.714C158.151 246.835 155.747 236.336 153.729 229.067C151.626 221.487 153.001 213.383 157.506 206.83C157.997 206.117 158.466 205.398 158.92 204.685C165.451 194.37 168.905 181.984 168.905 168.885V161.883C168.905 153 164.138 146.666 154.738 143.051C147.283 140.184 139.767 140.153 139.694 140.153C122.531 140.153 113.46 151.208 113.369 151.319C112.211 152.761 109.788 152.761 108.63 151.319C108.266 150.864 99.3387 140.147 82.307 140.147Z" />
<path d="M111.665 275.384C111.262 275.384 110.927 275.354 110.674 275.319C102.622 275.098 97.7172 264.968 96.0931 245.202C96.023 244.341 96.3122 243.491 96.8945 242.857C106.008 232.933 116.23 233.019 125.31 243.076C125.853 243.675 126.136 244.468 126.103 245.282C125.454 260.023 122.427 269.505 117.115 273.47C114.987 275.056 112.972 275.384 111.665 275.384ZM102.289 246.075C103.606 260.158 106.964 269.175 110.945 269.175C111.201 269.175 111.457 269.209 111.707 269.271C111.609 269.246 112.524 269.35 113.737 268.327C115.715 266.661 119.104 261.599 119.948 246.303C113.88 240.125 108.367 240.03 102.289 246.075Z" />
<path d="M95.7602 213.923C93.7241 213.923 91.7034 213.551 89.585 212.783C88.7283 212.47 88.058 211.794 87.7469 210.93C86.9969 208.825 86.6164 206.728 86.6164 204.703C86.6164 192.48 98.4788 182.838 111.079 187.402C111.933 187.716 112.606 188.392 112.917 189.256C113.667 191.355 114.048 193.451 114.048 195.483C114.048 205.653 105.846 213.923 95.7602 213.923ZM93.0537 207.432C93.9831 207.663 94.8764 207.776 95.7602 207.776C102.484 207.776 107.952 202.262 107.952 195.482C107.952 194.588 107.839 193.687 107.61 192.753C106.681 192.522 105.788 192.409 104.904 192.409C98.1799 192.409 92.7125 197.923 92.7125 204.703C92.7125 205.594 92.8256 206.495 93.0537 207.432Z" />
<path d="M95.7602 213.923C85.6774 213.923 77.4726 205.652 77.4726 195.482C77.4726 185.312 85.6774 177.041 95.7602 177.041C105.845 177.041 114.048 185.313 114.048 195.483C114.048 205.653 105.846 213.923 95.7602 213.923ZM95.7602 183.188C89.0362 183.188 83.5687 188.702 83.5687 195.482C83.5687 202.262 89.0368 207.776 95.7602 207.776C102.484 207.776 107.952 202.262 107.952 195.482C107.952 188.702 102.484 183.188 95.7602 183.188Z" />
</g>
</svg>
