<svg width="164" height="322" viewBox="0 0 164 322" fill="none" xmlns="http://www.w3.org/2000/svg">
<mask id="mask0" mask-type="alpha" maskUnits="userSpaceOnUse" x="0" y="0" width="164" height="322">
<rect width="164" height="322" rx="12" fill="#EDEDED" fill-opacity="0.45"/>
</mask>
<g mask="url(#mask0)">
<path d="M155.878 167.199C157.392 167.199 158.62 165.962 158.62 164.433C158.62 162.903 157.391 161.666 155.878 161.666C147.953 161.666 136.903 150.403 133.311 146.06C132.341 144.887 130.611 144.73 129.452 145.709C128.289 146.689 128.133 148.429 129.101 149.604C130.587 151.405 143.973 167.199 155.878 167.199Z" />
<path d="M79.1197 261.262C79.6243 261.262 80.1284 261.121 80.5723 260.841L94.5645 252.019C102.904 246.76 109.669 240.161 114.673 232.409C119.412 225.067 120.147 220.637 120.216 220.156C120.232 220.026 120.24 219.893 120.24 219.763V172.732C120.24 171.426 119.339 170.3 118.072 170.026L79.6931 161.726C79.315 161.646 78.9225 161.646 78.5445 161.726L40.1655 170.026C38.9018 170.3 38 171.426 38 172.732V219.763C38 219.893 38.0081 220.026 38.0272 220.156C38.096 220.637 38.8278 225.064 43.5703 232.409C48.5734 240.161 55.3391 246.759 63.6783 252.019L77.6704 260.841C78.1109 261.121 78.6156 261.262 79.1197 261.262ZM114.758 219.509C114.601 220.228 113.697 223.777 110.075 229.385C105.511 236.459 99.3127 242.493 91.6556 247.324L79.1191 255.231L66.5825 247.327C58.926 242.496 52.7274 236.459 48.163 229.388C44.5663 223.814 43.6506 220.272 43.4807 219.504V174.97L79.1185 167.263L114.756 174.97L114.758 219.509Z" />
<path d="M79.1198 247.429C79.5614 247.429 80.0025 247.321 80.4025 247.109L88.5828 242.734C88.6406 242.701 88.6978 242.671 88.7527 242.635C95.7294 238.23 101.357 232.761 105.483 226.37C107.725 222.892 108.729 220.422 109.127 219.26C109.223 218.966 109.275 218.665 109.275 218.355V181.031C109.275 179.712 108.354 178.578 107.071 178.32L79.6568 172.787C79.3031 172.718 78.936 172.718 78.5822 172.787L51.1685 178.32C49.8858 178.578 48.9643 179.712 48.9643 181.031V218.355C48.9643 218.662 49.0164 218.967 49.1152 219.257C49.5129 220.422 50.5136 222.89 52.7588 226.365C56.8815 232.756 62.5096 238.228 69.4892 242.632L77.8365 247.106C78.2371 247.321 78.6787 247.429 79.1198 247.429ZM85.9271 237.893L79.1204 241.531L72.2258 237.843C66.0988 233.97 61.0356 229.056 57.351 223.346C55.6514 220.712 54.815 218.825 54.4479 217.868V183.297L79.1204 178.317L103.793 183.297V217.865C103.426 218.825 102.589 220.709 100.89 223.346C97.2185 229.034 92.1853 233.926 85.9271 237.893Z" />
<path d="M72.8333 219.764C72.1066 219.764 71.4106 219.473 70.895 218.953L62.6708 210.654C61.5991 209.572 61.5991 207.824 62.6708 206.742C63.7403 205.66 65.478 205.66 66.5474 206.742L72.6801 212.928L87.2011 195.831C88.185 194.666 89.9152 194.533 91.0667 195.532C92.2153 196.525 92.3494 198.271 91.3626 199.43L74.9143 218.796C74.4183 219.382 73.6998 219.731 72.9379 219.761C72.905 219.764 72.8691 219.764 72.8333 219.764Z" />
<path d="M92.4432 299.997C92.9369 299.997 93.4358 299.939 93.9346 299.814C96.0677 299.283 97.7614 297.632 98.3511 295.504C103.888 275.593 117.039 241.896 131.207 241.896C145.375 241.896 158.524 275.593 164.059 295.504C164.651 297.632 166.343 299.28 168.476 299.814C170.619 300.351 172.804 299.707 174.315 298.096C187.128 284.455 186.084 256.78 186.032 255.608C186.035 246.279 183.463 235.174 181.305 227.527C179.639 221.613 180.735 215.277 184.321 210.142C184.864 209.364 185.382 208.587 185.884 207.81C193.156 196.503 197 182.977 197 168.696V161.666C196.999 139.782 173.687 134 161.362 134C145.744 134 135.307 140.88 131.207 144.175C127.105 140.88 116.669 134 101.051 134C88.7262 134 65.4134 139.782 65.4134 161.666V166.803C65.4134 167.638 65.7862 168.429 66.4302 168.953C67.0741 169.478 67.9216 169.686 68.7274 169.506L79.1199 167.259L114.758 174.967L114.758 219.509C114.601 220.228 113.697 223.777 110.075 229.385C105.511 236.459 99.3127 242.493 91.6556 247.324L78.0037 255.933C77.9268 255.966 77.8499 256.002 77.7736 256.046C76.888 256.535 76.34 257.479 76.3481 258.497C76.4192 266.716 77.7048 287.029 88.095 298.092C89.2552 299.333 90.8119 299.997 92.4432 299.997ZM131.206 236.363C110.698 236.363 96.8348 280.484 93.0733 294.008C92.9912 294.306 92.7554 294.409 92.6213 294.442C92.4074 294.498 92.2212 294.445 92.0785 294.29C83.4814 285.133 82.0698 267.335 81.864 260.026L94.5647 252.014C102.904 246.754 109.67 240.156 114.673 232.404C119.412 225.061 120.147 220.632 120.216 220.151C120.232 220.026 120.24 219.893 120.24 219.763V172.732C120.24 171.426 119.339 170.3 118.072 170.026L79.6931 161.726C79.315 161.646 78.9225 161.646 78.5445 161.726L70.8963 163.381V161.666C70.8963 139.843 99.8234 139.536 101.054 139.533C118.783 139.533 129.17 149.692 129.274 149.794C130.345 150.867 132.078 150.862 133.144 149.789C133.243 149.692 143.63 139.533 161.362 139.533C162.59 139.536 191.516 139.843 191.516 161.666V168.695C191.516 181.903 187.978 194.389 181.286 204.794C180.823 205.516 180.343 206.235 179.838 206.955C175.296 213.462 173.909 221.512 176.031 229.037C178.092 236.349 180.551 246.915 180.551 255.729C180.565 256.114 181.544 282.357 170.337 294.289C170.192 294.445 170.008 294.494 169.791 294.442C169.657 294.405 169.421 294.306 169.339 294.007C165.577 280.484 151.715 236.363 131.206 236.363Z" />
</g>
</svg>
