<svg width="161" height="322" viewBox="0 0 161 322" fill="none" xmlns="http://www.w3.org/2000/svg">
<mask id="mask0" mask-type="alpha" maskUnits="userSpaceOnUse" x="0" y="0" width="161" height="322">
<rect width="161" height="322" rx="12" fill="#EDEDED" fill-opacity="0.45"/>
</mask>
<g mask="url(#mask0)">
<path d="M142.72 202.665C144.343 202.665 145.66 201.351 145.66 199.732C145.66 198.114 144.343 196.799 142.72 196.799C132.527 196.799 121.602 183.368 121.494 183.233C120.476 181.969 118.627 181.77 117.363 182.778C116.096 183.79 115.89 185.635 116.904 186.9C117.422 187.542 129.696 202.665 142.72 202.665Z" />
<path d="M118.498 302.456C118.889 302.456 119.209 302.427 119.45 302.394C130.008 302.133 133.071 285.284 133.78 271.131C133.818 270.374 133.559 269.632 133.063 269.06C124.09 258.753 114.197 258.799 105.227 269.189C104.762 269.729 104.51 270.415 104.515 271.128C104.642 286.355 107.431 296.196 112.809 300.382C115.026 302.113 117.154 302.456 118.498 302.456ZM127.841 272.043C126.953 286.745 123.525 296.53 119.2 296.53C118.967 296.53 118.736 296.557 118.509 296.613C118.589 296.592 117.536 296.724 116.204 295.58C114.141 293.806 110.692 288.415 110.407 272.208C116.504 265.611 121.749 265.555 127.841 272.043Z" />
<path d="M69.2202 220.265C90.2942 220.265 107.44 203.158 107.44 182.133C107.44 161.107 90.2942 144 69.2202 144C48.1461 144 31 161.107 31 182.133C31 203.158 48.1467 220.265 69.2202 220.265ZM69.2202 149.867C87.0513 149.867 101.56 164.342 101.56 182.133C101.56 199.923 87.0513 214.398 69.2202 214.398C51.389 214.398 36.8802 199.923 36.8802 182.133C36.8802 164.342 51.389 149.867 69.2202 149.867Z" />
<path d="M84.855 320C85.3225 320 85.7986 319.941 86.2722 319.827C88.3627 319.32 90.018 317.706 90.5908 315.623C97.2206 291.52 108.636 267.198 119.2 267.198C129.763 267.198 141.18 291.52 147.809 315.623C148.383 317.706 150.038 319.319 152.128 319.827C154.212 320.334 156.33 319.701 157.788 318.128C169.262 305.776 168.327 280.82 168.283 279.764C168.287 271.38 165.999 261.396 164.082 254.517C162.639 249.337 163.591 243.787 166.693 239.291C167.175 238.592 167.639 237.888 168.086 237.191C174.572 226.992 178 214.801 178 201.932V195.638C178 175.674 157.014 170.4 145.916 170.4C132.406 170.4 123.207 177.181 119.197 180.878C116.548 178.443 111.641 174.671 104.732 172.374C103.738 172.042 102.642 172.268 101.857 172.958C101.072 173.65 100.716 174.709 100.922 175.733C101.345 177.847 101.56 179.997 101.56 182.133C101.56 199.923 87.0513 214.398 69.2202 214.398C68.0646 214.398 66.8299 214.32 65.448 214.158C64.4926 214.05 63.5516 214.405 62.9136 215.118C62.2757 215.83 62.0258 216.81 62.2434 217.74C63.9074 224.842 66.624 231.383 70.314 237.188C70.761 237.889 71.2253 238.594 71.7077 239.294C74.8124 243.791 75.7622 249.341 74.3183 254.521C72.3983 261.4 70.1138 271.387 70.1138 279.894C70.0728 280.823 69.138 305.78 80.6127 318.132C81.7416 319.346 83.2617 320 84.855 320ZM145.916 176.266C146.983 176.269 172.12 176.553 172.12 195.637V201.932C172.12 213.685 169.01 224.791 163.121 234.045C162.716 234.682 162.292 235.325 161.848 235.964C157.753 241.898 156.501 249.234 158.414 256.092C160.234 262.619 162.404 272.043 162.404 279.892C162.419 280.251 163.277 303.59 153.475 314.141C149.121 298.213 137.05 261.33 119.2 261.33C101.351 261.33 89.2796 298.213 84.9201 314.071C75.1242 303.59 75.9822 280.25 75.9915 280.016C75.9946 272.046 78.1645 262.618 79.984 256.092C81.8978 249.234 80.6455 241.898 76.5501 235.967C76.1062 235.324 75.6828 234.685 75.2774 234.045C72.6165 229.862 70.5142 225.24 69.0034 220.265C69.0772 220.265 69.1473 220.265 69.2179 220.265C90.292 220.265 107.438 203.158 107.438 182.133C107.438 181.358 107.415 180.584 107.367 179.809C113.491 182.889 116.896 186.893 116.94 186.94C117.499 187.607 118.328 187.996 119.198 187.996C120.094 188.09 120.909 187.609 121.468 186.934C121.553 186.835 130.587 176.266 145.916 176.266Z" />
<path d="M63.3401 205.599H75.1C76.723 205.599 78.0398 204.285 78.0398 202.666V190.933H89.7997C91.4227 190.933 92.7395 189.618 92.7395 187.999V176.266C92.7395 174.647 91.4221 173.333 89.7997 173.333H78.0398V161.6C78.0398 159.98 76.7224 158.667 75.1 158.667H63.3401C61.717 158.667 60.4002 159.981 60.4002 161.6V173.333H48.6404C47.0173 173.333 45.7005 174.647 45.7005 176.266V187.999C45.7005 189.618 47.0179 190.932 48.6404 190.932H60.4002V202.665C60.4002 204.285 61.717 205.599 63.3401 205.599ZM72.1601 199.732H66.2799V187.999C66.2799 186.38 64.9625 185.066 63.3401 185.066H51.5802V179.2H63.3401C64.9631 179.2 66.2799 177.885 66.2799 176.266V164.533H72.1601V176.266C72.1601 177.885 73.4775 179.199 75.1 179.199H86.8599V185.066H75.1C73.4769 185.066 72.1601 186.38 72.1601 187.999V199.732Z" />
</g>
</svg>
