<svg width="150" height="322" viewBox="0 0 150 322" fill="none" xmlns="http://www.w3.org/2000/svg">
<mask id="mask0" mask-type="alpha" maskUnits="userSpaceOnUse" x="0" y="0" width="150" height="322">
<rect width="150" height="322" rx="12" fill="#EDEDED" fill-opacity="0.45"/>
</mask>
<g mask="url(#mask0)">
<path d="M81.2769 300C81.7713 300 82.271 299.939 82.7707 299.817C84.9072 299.286 86.6036 297.632 87.1942 295.504C92.7404 275.596 105.912 241.898 120.102 241.898C134.293 241.898 147.464 275.596 153.008 295.504C153.601 297.632 155.295 299.284 157.431 299.817C159.578 300.346 161.767 299.709 163.28 298.099C176.114 284.457 175.067 256.782 175.015 255.61C175.018 246.278 172.442 235.175 170.281 227.526C168.612 221.614 169.713 215.275 173.302 210.141C173.846 209.363 174.367 208.586 174.867 207.808C182.151 196.503 186 182.977 186 168.696V161.666C186 139.782 162.65 134 150.305 134C134.662 134 124.209 140.88 120.102 144.175C115.994 140.88 105.541 134 89.8987 134C77.5539 134 54.2037 139.782 54.2037 161.666V168.696C54.2037 182.977 58.0535 196.503 65.3378 207.808C65.8374 208.585 66.3591 209.362 66.9028 210.14C70.4943 215.275 71.5955 221.613 69.9234 227.526C67.7626 235.175 65.1872 246.277 65.1872 255.731C65.138 256.783 64.0918 284.457 76.9229 298.099C78.0832 299.336 79.643 300 81.2769 300ZM120.102 236.365C99.5609 236.365 85.6755 280.487 81.908 294.01C81.8258 294.309 81.5866 294.412 81.4552 294.445C81.2358 294.5 81.0545 294.448 80.9115 294.296C69.6623 282.338 70.6668 256.119 70.6778 255.854C70.6807 246.92 73.1438 236.355 75.2085 229.042C77.3339 221.514 75.9443 213.463 71.3946 206.956C70.8921 206.237 70.4092 205.518 69.9477 204.801C63.2401 194.391 59.6949 181.907 59.6949 168.697V161.667C59.6949 139.847 88.6654 139.537 89.901 139.534C107.658 139.534 118.061 149.693 118.166 149.795C119.239 150.866 120.974 150.866 122.043 149.79C122.142 149.693 132.545 139.534 150.305 139.534C151.535 139.537 180.508 139.847 180.508 161.667V168.697C180.508 181.908 176.964 194.391 170.261 204.796C169.795 205.518 169.314 206.238 168.811 206.957C164.262 213.467 162.872 221.515 164.998 229.043C167.062 236.355 169.525 246.918 169.525 255.732C169.539 256.117 170.519 282.361 159.295 294.293C159.149 294.448 158.965 294.495 158.748 294.446C158.614 294.412 158.377 294.313 158.295 294.011C154.528 280.487 140.643 236.365 120.102 236.365Z" />
<path d="M144.814 167.2C146.33 167.2 147.56 165.96 147.56 164.433C147.56 162.906 146.329 161.667 144.814 161.667C136.876 161.667 125.808 150.401 122.211 146.06C121.239 144.887 119.509 144.73 118.345 145.709C117.18 146.689 117.024 148.429 117.993 149.605C119.481 151.405 132.889 167.2 144.814 167.2Z" />
<path d="M109.119 226.444L121.239 214.232L109.119 202.02L96.9994 214.232L109.119 226.444ZM113.474 214.232L109.119 218.619L104.765 214.232L109.119 209.844L113.474 214.232Z" />
<path d="M109.12 208.698C110.635 208.698 111.865 207.459 111.865 205.932V200.398C111.865 198.871 110.635 197.632 109.12 197.632C107.604 197.632 106.374 198.872 106.374 200.398V205.932C106.373 207.459 107.604 208.698 109.12 208.698Z" />
<path d="M95.3904 216.998H100.882C102.398 216.998 103.628 215.758 103.628 214.232C103.628 212.704 102.397 211.465 100.882 211.465H95.3904C93.8746 211.465 92.6448 212.705 92.6448 214.232C92.6448 215.759 93.8746 216.998 95.3904 216.998Z" />
<path d="M109.12 230.832C110.635 230.832 111.865 229.592 111.865 228.065V222.532C111.865 221.004 110.635 219.765 109.12 219.765C107.604 219.765 106.374 221.005 106.374 222.532V228.065C106.373 229.592 107.604 230.832 109.12 230.832Z" />
<path d="M117.357 216.998H122.848C124.364 216.998 125.594 215.758 125.594 214.232C125.594 212.704 124.364 211.465 122.848 211.465H117.357C115.841 211.465 114.611 212.705 114.611 214.232C114.61 215.759 115.841 216.998 117.357 216.998Z" />
<path d="M40.4753 254.11L52.5954 241.898L40.4753 229.686L28.3552 241.898L40.4753 254.11ZM44.8299 241.898L40.4753 246.286L36.1207 241.898L40.4753 237.51L44.8299 241.898Z" />
<path d="M40.4747 236.365C41.9905 236.365 43.2203 235.125 43.2203 233.599V228.065C43.2203 226.538 41.9899 225.299 40.4747 225.299C38.9595 225.299 37.7291 226.538 37.7291 228.065V233.599C37.7291 235.125 38.9589 236.365 40.4747 236.365Z" />
<path d="M26.7456 244.665H32.2374C33.7532 244.665 34.983 243.425 34.983 241.898C34.983 240.371 33.7526 239.132 32.2374 239.132H26.7456C25.2298 239.132 24 240.372 24 241.898C24 243.425 25.2304 244.665 26.7456 244.665Z" />
<path d="M40.4747 258.498C41.9905 258.498 43.2203 257.258 43.2203 255.731V250.198C43.2203 248.67 41.9899 247.431 40.4747 247.431C38.9595 247.431 37.7291 248.671 37.7291 250.198V255.731C37.7291 257.259 38.9589 258.498 40.4747 258.498Z" />
<path d="M48.7128 244.665H54.2045C55.7203 244.665 56.9501 243.425 56.9501 241.898C56.9501 240.371 55.7198 239.132 54.2045 239.132H48.7128C47.1969 239.132 45.9672 240.372 45.9672 241.898C45.9672 243.425 47.1969 244.665 48.7128 244.665Z" />
<path d="M87.1529 200.399C88.6687 200.399 89.8985 199.159 89.8985 197.633C89.8985 185.429 97.29 175.499 106.373 175.499C107.889 175.499 109.119 174.26 109.119 172.733C109.119 171.206 107.888 169.967 106.373 169.967C97.29 169.967 89.8985 160.037 89.8985 147.834C89.8985 146.307 88.6682 145.067 87.1529 145.067C85.6377 145.067 84.4073 146.307 84.4073 147.834C84.4073 160.037 77.0159 169.967 67.9327 169.967C66.4169 169.967 65.1871 171.206 65.1871 172.733C65.1871 174.26 66.4175 175.499 67.9327 175.499C77.0159 175.499 84.4073 185.429 84.4073 197.633C84.4073 199.159 85.6371 200.399 87.1529 200.399ZM96.8019 172.732C92.7246 175.228 89.3444 179.27 87.1535 184.247C84.9597 179.27 81.5825 175.228 77.5052 172.732C81.5825 170.237 84.9626 166.195 87.1535 161.217C89.3468 166.195 92.724 170.237 96.8019 172.732Z" />
</g>
</svg>
