<svg width="161" height="322" viewBox="0 0 161 322" fill="none" xmlns="http://www.w3.org/2000/svg">
<mask id="mask0" mask-type="alpha" maskUnits="userSpaceOnUse" x="0" y="0" width="161" height="322">
<rect width="161" height="322" rx="12" fill="#EDEDED" fill-opacity="0.45"/>
</mask>
<g mask="url(#mask0)">
<path d="M82.1148 300C82.61 300 83.1104 299.939 83.6109 299.817C85.7506 299.286 87.4497 297.632 88.0412 295.504C93.5959 275.596 106.788 241.898 121 241.898C135.212 241.898 148.404 275.596 153.956 295.504C154.55 297.632 156.246 299.284 158.386 299.817C160.536 300.346 162.728 299.709 164.244 298.099C177.097 284.457 176.049 256.782 175.997 255.61C176 246.278 173.42 235.175 171.256 227.526C169.584 221.614 170.687 215.275 174.281 210.141C174.826 209.363 175.348 208.586 175.849 207.808C183.144 196.504 187 182.978 187 168.697V161.667C186.999 139.782 163.613 134 151.25 134C135.583 134 125.114 140.88 121 144.175C116.886 140.88 106.417 134 90.7498 134C78.3861 134 55 139.782 55 161.666V168.696C55 182.977 58.8557 196.503 66.1512 207.808C66.6516 208.585 67.1741 209.362 67.7186 210.14C71.3156 215.275 72.4185 221.613 70.7438 227.525C68.5797 235.175 66.0004 246.277 66.0004 255.731C65.9511 256.782 64.9032 284.457 77.754 298.099C78.9167 299.336 80.4783 300 82.1148 300ZM120.999 236.365C100.427 236.365 86.5201 280.487 82.7468 294.01C82.6645 294.309 82.425 294.412 82.2934 294.445C82.0736 294.5 81.8921 294.448 81.7489 294.296C70.4823 282.338 71.4884 256.119 71.4994 255.854C71.5023 246.92 73.9691 236.355 76.037 229.042C78.1658 221.514 76.774 213.463 72.2173 206.956C71.714 206.237 71.2303 205.518 70.7682 204.801C64.0502 194.391 60.4996 181.907 60.4996 168.697V161.667C60.4996 139.847 89.5146 139.537 90.7521 139.534C108.537 139.534 118.956 149.693 119.06 149.795C120.135 150.866 121.873 150.866 122.943 149.79C123.042 149.693 133.462 139.534 151.249 139.534C152.481 139.537 181.499 139.847 181.499 161.667V168.697C181.499 181.908 177.949 194.391 171.236 204.796C170.768 205.518 170.287 206.238 169.784 206.957C165.227 213.467 163.835 221.515 165.964 229.043C168.032 236.355 170.499 246.918 170.499 255.732C170.513 256.117 171.495 282.361 160.252 294.293C160.107 294.448 159.925 294.495 159.705 294.446C159.57 294.412 159.334 294.313 159.251 294.011C155.479 280.487 141.572 236.365 120.999 236.365Z" />
<path d="M145.749 167.2C147.268 167.2 148.499 165.96 148.499 164.433C148.499 162.906 147.267 161.667 145.749 161.667C137.799 161.667 126.714 150.401 123.111 146.06C122.138 144.887 120.406 144.73 119.239 145.709C118.073 146.689 117.917 148.429 118.887 149.605C120.378 151.405 133.806 167.2 145.749 167.2Z" />
<path d="M104.038 192.096C106.268 192.096 108.498 191.242 110.198 189.535C113.594 186.118 113.594 180.557 110.198 177.14L89.1219 155.934C85.7232 152.52 80.1981 152.517 76.8017 155.934C73.4053 159.351 73.4053 164.911 76.8017 168.328L97.8775 189.535C99.5772 191.239 101.807 192.096 104.038 192.096ZM106.309 185.619C105.055 186.878 103.02 186.881 101.766 185.619L80.6904 164.416C79.439 163.155 79.439 161.107 80.6904 159.846C81.9418 158.587 83.9795 158.585 85.2332 159.846L106.309 181.049C107.56 182.31 107.56 184.361 106.309 185.619Z" />
<path d="M101.931 175.499C102.66 175.499 103.361 175.209 103.876 174.689L110.197 168.328C111.919 166.596 112.846 164.198 112.741 161.75C112.637 159.304 111.501 156.991 109.629 155.409C106.208 152.52 100.914 152.88 97.578 156.236L91.5554 162.294C90.4803 163.376 90.4803 165.124 91.5554 166.207L99.9869 174.689C100.501 175.209 101.202 175.499 101.931 175.499ZM104.192 158.988C104.893 158.988 105.567 159.204 106.092 159.644C106.799 160.241 107.208 161.075 107.247 161.99C107.285 162.906 106.953 163.769 106.309 164.416L101.931 168.821L97.3884 164.251L101.467 160.148C102.225 159.386 103.235 158.988 104.192 158.988Z" />
<path d="M82.8105 192.008C85.181 192.008 87.5957 191.069 89.4217 189.232L95.4438 183.174C96.5189 182.092 96.5189 180.344 95.4438 179.262L87.0123 170.779C85.9813 169.742 84.1552 169.742 83.1236 170.779L76.8011 177.14C75.0795 178.872 74.1528 181.27 74.2572 183.719C74.3616 186.164 75.4976 188.477 77.37 190.06C78.9189 191.366 80.8493 192.008 82.8105 192.008ZM89.6108 181.215L85.5324 185.318C84.2178 186.637 82.1442 186.864 80.9096 185.821C80.2027 185.224 79.7933 184.391 79.7545 183.476C79.7156 182.56 80.0485 181.697 80.6921 181.049L85.0703 176.645L89.6108 181.215Z" />
</g>
</svg>
