<svg width="44" height="44" viewBox="0 0 44 44" fill="none" xmlns="http://www.w3.org/2000/svg">
<path fill-rule="evenodd" clip-rule="evenodd" d="M10.0779 12.8337C9.47619 11.8498 9.16666 10.6389 9.16666 9.16699C9.16666 6.26498 11.349 3.66699 14.6667 3.66699C17.9887 3.66699 20.6677 5.89197 22 9.37568C23.3323 5.89197 26.0113 3.66699 29.3333 3.66699C32.651 3.66699 34.8333 6.26498 34.8333 9.16699C34.8333 10.6389 34.5238 11.8498 33.9221 12.8337H36.6667C38.6917 12.8337 40.3333 14.4753 40.3333 16.5003V20.167C40.3333 22.192 38.6917 23.8337 36.6667 23.8337V36.667C36.6667 38.692 35.025 40.3337 33 40.3337H11C8.97495 40.3337 7.33333 38.692 7.33333 36.667V23.8337C5.30829 23.8337 3.66666 22.192 3.66666 20.167V16.5003C3.66666 14.4753 5.30829 12.8337 7.33333 12.8337H10.0779ZM20.1667 16.5003H7.33333V20.167H20.1667V16.5003ZM23.8333 20.167H36.6667V16.5003H23.8333V20.167ZM20.1667 36.667V23.8337H11V36.667H20.1667ZM23.8333 36.667H33V23.8337H23.8333V36.667ZM14.6667 7.33366C13.5294 7.33366 12.8333 8.16226 12.8333 9.16699C12.8333 11.4646 14.6978 12.557 19.1206 12.7869C18.6291 9.37159 16.7973 7.33366 14.6667 7.33366ZM29.2039 7.33366C27.0733 7.33366 25.2415 9.37159 24.75 12.7869C29.1728 12.557 31.0373 11.4646 31.0373 9.16699C31.0373 8.16226 30.3412 7.33366 29.2039 7.33366Z" fill="#EA97AD"/>
</svg>
