<svg width="34" height="34" viewBox="0 0 34 34" fill="none" xmlns="http://www.w3.org/2000/svg">
  <rect opacity="0.8" x="0.5" y="0.5" width="33" height="33" rx="16.5" stroke="white"/>
  <g clip-path="url(#clip0)">
    <path fill-rule="evenodd" clip-rule="evenodd"
          d="M14.9836 19.9009C14.9818 19.6792 15.0641 19.465 15.2141 19.3016L17.6644 16.7119L15.2141 14.1221C15.064 13.9592 14.9806 13.7457 14.9806 13.5242C14.9806 13.3027 15.064 13.0892 15.2141 12.9263C15.2859 12.848 15.3732 12.7854 15.4705 12.7426C15.5677 12.6998 15.6728 12.6777 15.7791 12.6777C15.8854 12.6777 15.9905 12.6998 16.0878 12.7426C16.185 12.7854 16.2723 12.848 16.3441 12.9263L19.3592 16.1143C19.51 16.2765 19.5938 16.4898 19.5938 16.7113C19.5938 16.9328 19.51 17.146 19.3592 17.3083L16.347 20.4974C16.2752 20.5757 16.1879 20.6383 16.0906 20.6811C15.9934 20.7239 15.8883 20.746 15.782 20.746C15.6757 20.746 15.5706 20.7239 15.4733 20.6811C15.3761 20.6383 15.2888 20.5757 15.217 20.4974C15.0672 20.335 14.9848 20.1218 14.9865 19.9009"
          fill="white"/>
  </g>
  <defs>
    <clipPath id="clip0">
      <rect width="8.0678" height="8.0678" fill="white" transform="matrix(-1 0 0 1 21.3223 12.6777)"/>
    </clipPath>
  </defs>
</svg>
