<svg width="29" height="29" viewBox="0 0 29 29" fill="none" xmlns="http://www.w3.org/2000/svg">
  <g opacity="0.2">
    <path
      d="M18.2132 2.41602H10.7996C4.02783 2.41602 2.41675 4.0271 2.41675 10.7862V18.1999C2.41675 24.9715 4.0153 26.5827 10.7869 26.5827H18.2006C24.9723 26.5827 26.5834 24.9841 26.5834 18.2124V10.7988C26.5834 4.0271 24.9849 2.41602 18.2132 2.41602ZM21.9263 19.6599H20.1641C19.4971 19.6599 19.2957 19.1187 18.0999 17.9229C17.0552 16.916 16.6147 16.7901 16.3503 16.7901C15.9854 16.7901 15.8846 16.8908 15.8846 17.3943V18.9802C15.8846 19.4082 15.7462 19.6599 14.626 19.6599C13.5389 19.5869 12.4848 19.2567 11.5504 18.6964C10.616 18.1362 9.82801 17.3621 9.25138 16.4377C7.88247 14.7338 6.93 12.734 6.46973 10.5974C6.46973 10.3331 6.57039 10.0939 7.07389 10.0939H8.83602C9.28914 10.0939 9.4528 10.2953 9.62899 10.7611C10.4849 13.2784 11.945 15.4685 12.5365 15.4685C12.7631 15.4685 12.8638 15.3678 12.8638 14.8014V12.2085C12.7882 11.0254 12.1589 10.9247 12.1589 10.4967C12.1672 10.3838 12.2192 10.2786 12.3038 10.2034C12.3884 10.1282 12.499 10.0889 12.6121 10.0939H15.3812C15.7588 10.0939 15.8846 10.2827 15.8846 10.7358V14.235C15.8846 14.6126 16.0483 14.7385 16.1615 14.7385C16.3881 14.7385 16.5643 14.6126 16.9797 14.1973C17.8722 13.1088 18.6015 11.8961 19.1446 10.5974C19.2 10.4411 19.3051 10.3073 19.4438 10.2164C19.5824 10.1255 19.747 10.0825 19.9124 10.0939H21.6746C22.2032 10.0939 22.3165 10.3582 22.2032 10.7358C21.562 12.1717 20.7687 13.5347 19.8369 14.8014C19.6481 15.0909 19.5726 15.2419 19.8369 15.5818C20.0131 15.8461 20.6299 16.3622 21.0452 16.853C21.6494 17.4557 22.1511 18.153 22.5304 18.9173C22.6815 19.4082 22.4298 19.6599 21.9263 19.6599Z"
      fill="white"/>
  </g>
</svg>
