<svg width="29" height="29" viewBox="0 0 29 29" fill="none" xmlns="http://www.w3.org/2000/svg">
  <g opacity="0.2">
    <path
      d="M20.9526 6.59685C20.6658 6.59685 20.3855 6.68189 20.147 6.84122C19.9086 7.00055 19.7227 7.22701 19.613 7.49196C19.5032 7.75691 19.4745 8.04846 19.5304 8.32973C19.5864 8.611 19.7245 8.86937 19.9273 9.07215C20.1301 9.27494 20.3884 9.41304 20.6697 9.46899C20.951 9.52494 21.2425 9.49622 21.5075 9.38647C21.7724 9.27673 21.9989 9.09088 22.1582 8.85243C22.3175 8.61397 22.4026 8.33363 22.4026 8.04685C22.4026 7.66228 22.2498 7.29347 21.9779 7.02154C21.706 6.74962 21.3371 6.59685 20.9526 6.59685ZM26.5109 9.52102C26.4874 8.51846 26.2996 7.52654 25.9551 6.58476C25.6478 5.77897 25.1696 5.04931 24.5534 4.44602C23.9551 3.82666 23.2237 3.35148 22.4147 3.05643C21.4754 2.70138 20.4824 2.50931 19.4784 2.48852C18.1976 2.41602 17.7867 2.41602 14.5001 2.41602C11.2134 2.41602 10.8026 2.41602 9.52175 2.48852C8.51781 2.50931 7.52479 2.70138 6.5855 3.05643C5.77794 3.35447 5.04721 3.82923 4.44675 4.44602C3.82739 5.04436 3.35221 5.77571 3.05716 6.58476C2.70211 7.52406 2.51004 8.51707 2.48925 9.52102C2.41675 10.8018 2.41675 11.2127 2.41675 14.4993C2.41675 17.786 2.41675 18.1968 2.48925 19.4777C2.51004 20.4816 2.70211 21.4746 3.05716 22.4139C3.35221 23.223 3.82739 23.9543 4.44675 24.5527C5.04721 25.1695 5.77794 25.6442 6.5855 25.9423C7.52479 26.2973 8.51781 26.4894 9.52175 26.5102C10.8026 26.5827 11.2134 26.5827 14.5001 26.5827C17.7867 26.5827 18.1976 26.5827 19.4784 26.5102C20.4824 26.4894 21.4754 26.2973 22.4147 25.9423C23.2237 25.6472 23.9551 25.172 24.5534 24.5527C25.1724 23.9516 25.651 23.2213 25.9551 22.4139C26.2996 21.4722 26.4874 20.4802 26.5109 19.4777C26.5109 18.1968 26.5834 17.786 26.5834 14.4993C26.5834 11.2127 26.5834 10.8018 26.5109 9.52102ZM24.3359 19.3327C24.3271 20.0997 24.1882 20.8597 23.9251 21.5802C23.7322 22.106 23.4223 22.5812 23.0188 22.9698C22.6269 23.3691 22.1527 23.6784 21.6292 23.876C20.9087 24.1391 20.1488 24.2781 19.3818 24.2868C18.1734 24.3473 17.7263 24.3593 14.5484 24.3593C11.3705 24.3593 10.9234 24.3593 9.71508 24.2868C8.91866 24.3018 8.12563 24.1791 7.37092 23.9243C6.8704 23.7166 6.41797 23.4081 6.04175 23.0181C5.64069 22.6299 5.33468 22.1544 5.14758 21.6285C4.85257 20.8977 4.68895 20.1204 4.66425 19.3327C4.66425 18.1243 4.59175 17.6773 4.59175 14.4993C4.59175 11.3214 4.59175 10.8743 4.66425 9.66602C4.66966 8.88187 4.81281 8.10478 5.08717 7.37018C5.29989 6.86016 5.6264 6.40552 6.04175 6.04102C6.40886 5.62555 6.86255 5.29559 7.37092 5.07435C8.10746 4.80857 8.88375 4.66965 9.66675 4.66352C10.8751 4.66352 11.3222 4.59102 14.5001 4.59102C17.678 4.59102 18.1251 4.59102 19.3334 4.66352C20.1004 4.67231 20.8604 4.81123 21.5809 5.07435C22.13 5.27814 22.6229 5.60946 23.0188 6.04102C23.4148 6.41219 23.7242 6.86598 23.9251 7.37018C24.1936 8.10598 24.3326 8.88275 24.3359 9.66602C24.3963 10.8743 24.4084 11.3214 24.4084 14.4993C24.4084 17.6773 24.3963 18.1243 24.3359 19.3327ZM14.5001 8.3006C13.2746 8.30299 12.0773 8.66857 11.0595 9.35115C10.0418 10.0337 9.24912 11.0027 8.78181 12.1356C8.31449 13.2684 8.19346 14.5144 8.434 15.7161C8.67454 16.9177 9.26587 18.0211 10.1333 18.8868C11.0006 19.7525 12.1052 20.3417 13.3073 20.5799C14.5094 20.8181 15.7551 20.6946 16.8871 20.2251C18.0191 19.7556 18.9865 18.961 19.6671 17.9419C20.3477 16.9228 20.7109 15.7248 20.7109 14.4993C20.7125 13.6839 20.5529 12.8761 20.2412 12.1225C19.9295 11.3689 19.4718 10.6844 18.8946 10.1083C18.3174 9.53224 17.632 9.07596 16.8778 8.76572C16.1237 8.45548 15.3156 8.29741 14.5001 8.3006ZM14.5001 18.5231C13.7043 18.5231 12.9263 18.2871 12.2646 17.845C11.6029 17.4028 11.0872 16.7744 10.7826 16.0392C10.4781 15.3039 10.3984 14.4949 10.5536 13.7144C10.7089 12.9338 11.0921 12.2169 11.6549 11.6541C12.2176 11.0914 12.9346 10.7082 13.7151 10.5529C14.4956 10.3977 15.3047 10.4773 16.0399 10.7819C16.7752 11.0864 17.4036 11.6022 17.8457 12.2639C18.2878 12.9256 18.5238 13.7035 18.5238 14.4993C18.5238 15.0278 18.4198 15.551 18.2175 16.0392C18.0153 16.5274 17.7189 16.9709 17.3453 17.3446C16.9717 17.7182 16.5281 18.0146 16.0399 18.2168C15.5517 18.419 15.0285 18.5231 14.5001 18.5231Z"
      fill="white"/>
  </g>
</svg>
