<svg width="24" height="24" viewBox="0 0 24 24" fill="none" xmlns="http://www.w3.org/2000/svg">
<g clip-path="url(#clip0)">
<path d="M18.8571 3H5.14286C4.57454 3 4.02949 3.22576 3.62763 3.62763C3.22576 4.02949 3 4.57454 3 5.14286L3 15.4286C3 15.9969 3.22576 16.5419 3.62763 16.9438C4.02949 17.3457 4.57454 17.5714 5.14286 17.5714H7.28571V20.1429C7.28642 20.3119 7.33708 20.4769 7.43131 20.6172C7.52554 20.7575 7.65915 20.8668 7.81532 20.9314C7.9715 20.9959 8.14329 21.0129 8.30908 20.9801C8.47488 20.9473 8.62729 20.8663 8.74714 20.7471L11.9229 17.5714H18.8571C19.4255 17.5714 19.9705 17.3457 20.3724 16.9438C20.7742 16.5419 21 15.9969 21 15.4286V5.14286C21 4.57454 20.7742 4.02949 20.3724 3.62763C19.9705 3.22576 19.4255 3 18.8571 3V3ZM12 9.21429C12.2119 9.21429 12.4191 9.27712 12.5953 9.39485C12.7714 9.51258 12.9088 9.67992 12.9899 9.8757C13.071 10.0715 13.0922 10.2869 13.0508 10.4947C13.0095 10.7026 12.9075 10.8935 12.7576 11.0433C12.6078 11.1932 12.4169 11.2952 12.209 11.3366C12.0012 11.3779 11.7858 11.3567 11.59 11.2756C11.3942 11.1945 11.2269 11.0572 11.1091 10.881C10.9914 10.7048 10.9286 10.4976 10.9286 10.2857C10.9286 10.0016 11.0415 9.72903 11.2424 9.5281C11.4433 9.32717 11.7158 9.21429 12 9.21429ZM8.35714 9.21429C8.56905 9.21429 8.7762 9.27712 8.9524 9.39485C9.12859 9.51258 9.26592 9.67992 9.34701 9.8757C9.42811 10.0715 9.44933 10.2869 9.40798 10.4947C9.36664 10.7026 9.2646 10.8935 9.11476 11.0433C8.96492 11.1932 8.77401 11.2952 8.56617 11.3366C8.35833 11.3779 8.1429 11.3567 7.94712 11.2756C7.75135 11.1945 7.58401 11.0572 7.46628 10.881C7.34855 10.7048 7.28571 10.4976 7.28571 10.2857C7.28571 10.0016 7.3986 9.72903 7.59953 9.5281C7.80046 9.32717 8.07298 9.21429 8.35714 9.21429ZM15.6429 11.3571C15.4309 11.3571 15.2238 11.2943 15.0476 11.1766C14.8714 11.0588 14.7341 10.8915 14.653 10.6957C14.5719 10.5 14.5507 10.2845 14.592 10.0767C14.6334 9.86885 14.7354 9.67794 14.8852 9.5281C15.0351 9.37826 15.226 9.27621 15.4338 9.23487C15.6417 9.19353 15.8571 9.21475 16.0529 9.29584C16.2487 9.37694 16.416 9.51426 16.5337 9.69046C16.6514 9.86666 16.7143 10.0738 16.7143 10.2857C16.7143 10.5699 16.6014 10.8424 16.4005 11.0433C16.1995 11.2443 15.927 11.3571 15.6429 11.3571Z" fill="#5F8F96"/>
</g>
<defs>
<clipPath id="clip0">
<rect width="18" height="18" fill="white" transform="translate(3 3)"/>
</clipPath>
</defs>
</svg>
