<svg width="37" height="39" viewBox="0 0 37 39" fill="none" xmlns="http://www.w3.org/2000/svg">
  <path fill-rule="evenodd" clip-rule="evenodd" d="M13.8656 32.3351C11.679 32.073 9.38884 31.2971 7.67895 29.8607C2.84983 25.8135 -0.787565 16.5867 0.145099 10.2853C0.787601 5.95503 3.55451 1.92882 7.78258 0.555291C11.5132 -0.650476 15.0056 0.209288 18.3735 2.02318C21.7415 0.209288 25.2338 -0.660961 28.9644 0.555291C33.7314 2.09658 36.5708 6.9511 36.7366 11.8476C36.861 15.5068 36.1874 19.5225 35.2858 23.0559C34.3946 26.5474 33.12 30.2696 31.3997 33.4465C30.1354 35.7742 28.6639 38.8462 25.6068 38.8358C22.1456 38.8358 20.9228 35.9839 20.9228 32.9223V31.402L20.7881 31.4544C19.5134 31.9472 18.1662 32.2512 16.8087 32.3666C16.4149 35.6798 15.1817 38.5317 11.4614 38.8148C9.29557 38.9826 7.24371 37.3469 6.78774 35.2185L6.77738 35.1765C6.61157 34.4006 7.09863 33.6352 7.86549 33.4675L7.93803 33.4465C8.32146 33.3626 8.68416 33.4255 9.00541 33.6457C9.33702 33.8659 9.54428 34.17 9.62719 34.5579L9.63755 34.5999C9.78263 35.3023 10.4977 35.921 11.2334 35.8685C11.7723 35.8266 12.3008 35.6903 12.7153 35.3233C13.4511 34.6732 13.7413 33.2788 13.8656 32.3351ZM24.954 29.0114C24.8711 29.0848 24.7778 29.1582 24.6742 29.2421L24.6431 29.2735C24.612 29.2945 24.5913 29.3154 24.5602 29.3364C24.3426 29.4937 24.1042 29.6615 23.8451 29.8292V32.9432C23.8451 33.7296 23.8762 34.8305 24.4358 35.4386C24.7467 35.7846 25.1612 35.9105 25.6172 35.9105C27.0058 35.9105 28.2908 33.0795 28.8504 32.052C31.7106 26.7886 34.0319 17.9917 33.8246 11.9839C33.7003 8.34559 31.6484 4.56053 28.0732 3.40719C24.8503 2.3587 21.928 3.38622 19.1093 5.03235L19.0885 5.04284C18.6326 5.30496 18.1144 5.30496 17.6585 5.04284L17.6377 5.03235C14.8294 3.37574 11.8967 2.3587 8.6738 3.40719C5.52346 4.40326 3.51305 7.52777 3.03636 10.7257C2.25914 15.9891 5.5131 24.1883 9.54428 27.5854C10.7775 28.613 12.4874 29.1791 14.0522 29.3784C14.0522 29.3154 14.0522 29.263 14.0522 29.2001L14.2801 17.5618C14.3734 12.6339 17.9383 10.6837 22.3943 10.8096H22.4047C23.1715 10.8305 23.783 11.4701 23.783 12.246V12.3194C23.783 13.1057 23.1508 13.7558 22.3736 13.7558H22.0109C22.0005 13.7558 22.0005 13.7558 21.9902 13.7558C21.7415 13.7558 21.4928 13.7663 21.2648 13.7768H21.2337C18.7673 13.9131 17.2543 14.993 17.2025 17.6143L16.9745 29.2525C16.9745 29.2945 16.9745 29.3364 16.9745 29.3784C18.3424 29.2106 19.6792 28.8017 20.9021 28.1621L20.8917 16.4819C20.8917 15.685 21.5342 15.0455 22.3114 15.0455H22.3632C23.1508 15.0455 23.783 15.6955 23.783 16.4819C23.7933 19.6693 23.814 22.8567 23.814 26.0337C25.327 24.5553 25.8141 23.4753 26.6328 21.5251L26.6431 21.4937C26.7986 21.1267 27.0576 20.8646 27.4203 20.7178C27.7831 20.571 28.1458 20.571 28.5085 20.7283L28.581 20.7597C28.9437 20.917 29.1924 21.1791 29.3479 21.5461C29.4929 21.9131 29.4929 22.2905 29.3375 22.647L29.3271 22.6785C28.1976 25.4046 27.1509 27.187 24.954 29.0114Z" fill="#4E4E4E"/>
</svg>
