<svg width="16" height="13" viewBox="0 0 16 13" fill="none" xmlns="http://www.w3.org/2000/svg">
  <path d="M9.84643 11.7694C11.5897 10.5445 14.1053 8.62693 15.1536 7.0933C15.938 5.94754 16.1932 4.52804 15.852 3.20821C15.1231 0.201759 11.0865 -1.02675 8.57216 0.987994C8.43075 1.10056 8.30039 1.22534 8.16659 1.35348C8.112 1.40577 8.05679 1.45862 8 1.51142C7.94322 1.45862 7.888 1.40576 7.83341 1.35347C7.69961 1.22534 7.56926 1.10056 7.42784 0.987994C4.91349 -1.02675 0.876948 0.201759 0.147998 3.20821C-0.193178 4.52804 0.0620138 5.94754 0.846438 7.0933C1.89474 8.62693 4.41035 10.5445 6.15357 11.7694C6.6393 12.1108 8 13 8 13C8 13 9.36071 12.1108 9.84643 11.7694Z" fill="#EA97AD"/>
</svg>
