<svg width="18" height="15" viewBox="0 0 18 15" fill="none" xmlns="http://www.w3.org/2000/svg">
  <path d="M11.0772 13.5801C13.0384 12.1668 15.8684 9.95415 17.0478 8.18458C17.9302 6.86254 18.2173 5.22466 17.8335 3.70178C17.0134 0.232799 12.4723 -1.18471 9.64368 1.13999C9.48459 1.26987 9.33794 1.41386 9.18741 1.56171C9.126 1.62204 9.06388 1.68302 9 1.74394C8.93612 1.68302 8.874 1.62204 8.81259 1.5617C8.66206 1.41386 8.51541 1.26987 8.35633 1.13999C5.52768 -1.18471 0.986566 0.232799 0.166498 3.70178C-0.217326 5.22466 0.0697656 6.86254 0.952242 8.18458C2.13158 9.95415 4.96165 12.1668 6.92277 13.5801C7.46921 13.974 9 15 9 15C9 15 10.5308 13.974 11.0772 13.5801Z" fill="#EA97AD"/>
</svg>
