<svg width="29" height="29" viewBox="0 0 29 29" fill="none" xmlns="http://www.w3.org/2000/svg">
<path d="M20.9528 6.59783C20.666 6.59783 20.3857 6.68287 20.1473 6.84219C19.9088 7.00152 19.7229 7.22798 19.6132 7.49293C19.5035 7.75789 19.4747 8.04943 19.5307 8.33071C19.5866 8.61198 19.7247 8.87034 19.9275 9.07313C20.1303 9.27592 20.3887 9.41401 20.6699 9.46996C20.9512 9.52591 21.2428 9.4972 21.5077 9.38745C21.7727 9.2777 21.9991 9.09185 22.1585 8.8534C22.3178 8.61495 22.4028 8.33461 22.4028 8.04782C22.4028 7.66326 22.2501 7.29445 21.9781 7.02252C21.7062 6.75059 21.3374 6.59783 20.9528 6.59783ZM26.5112 9.52199C26.4877 8.51944 26.2999 7.52752 25.9553 6.58574C25.6481 5.77994 25.1699 5.05029 24.5537 4.44699C23.9553 3.82763 23.224 3.35246 22.4149 3.05741C21.4756 2.70235 20.4826 2.51029 19.4787 2.48949C18.1978 2.41699 17.787 2.41699 14.5003 2.41699C11.2137 2.41699 10.8028 2.41699 9.52199 2.48949C8.51805 2.51029 7.52503 2.70235 6.58574 3.05741C5.77818 3.35544 5.04745 3.83021 4.44699 4.44699C3.82763 5.04533 3.35246 5.77669 3.05741 6.58574C2.70235 7.52503 2.51029 8.51805 2.48949 9.52199C2.41699 10.8028 2.41699 11.2137 2.41699 14.5003C2.41699 17.787 2.41699 18.1978 2.48949 19.4787C2.51029 20.4826 2.70235 21.4756 3.05741 22.4149C3.35246 23.224 3.82763 23.9553 4.44699 24.5537C5.04745 25.1704 5.77818 25.6452 6.58574 25.9432C7.52503 26.2983 8.51805 26.4904 9.52199 26.5112C10.8028 26.5837 11.2137 26.5837 14.5003 26.5837C17.787 26.5837 18.1978 26.5837 19.4787 26.5112C20.4826 26.4904 21.4756 26.2983 22.4149 25.9432C23.224 25.6482 23.9553 25.173 24.5537 24.5537C25.1726 23.9526 25.6512 23.2223 25.9553 22.4149C26.2999 21.4731 26.4877 20.4812 26.5112 19.4787C26.5112 18.1978 26.5837 17.787 26.5837 14.5003C26.5837 11.2137 26.5837 10.8028 26.5112 9.52199ZM24.3362 19.3337C24.3274 20.1007 24.1884 20.8606 23.9253 21.5812C23.7324 22.107 23.4225 22.5822 23.0191 22.9707C22.6272 23.3701 22.153 23.6793 21.6295 23.877C20.909 24.1401 20.149 24.279 19.382 24.2878C18.1737 24.3482 17.7266 24.3603 14.5487 24.3603C11.3707 24.3603 10.9237 24.3603 9.71533 24.2878C8.9189 24.3027 8.12588 24.1801 7.37116 23.9253C6.87065 23.7176 6.41821 23.4091 6.04199 23.0191C5.64093 22.6309 5.33493 22.1553 5.14783 21.6295C4.85282 20.8986 4.68919 20.1214 4.66449 19.3337C4.66449 18.1253 4.59199 17.6782 4.59199 14.5003C4.59199 11.3224 4.59199 10.8753 4.66449 9.66699C4.66991 8.88285 4.81306 8.10576 5.08741 7.37116C5.30013 6.86113 5.62665 6.4065 6.04199 6.04199C6.4091 5.62653 6.8628 5.29657 7.37116 5.07533C8.1077 4.80954 8.88399 4.67063 9.66699 4.66449C10.8753 4.66449 11.3224 4.59199 14.5003 4.59199C17.6782 4.59199 18.1253 4.59199 19.3337 4.66449C20.1007 4.67329 20.8606 4.81221 21.5812 5.07533C22.1303 5.27911 22.6231 5.61043 23.0191 6.04199C23.4151 6.41317 23.7245 6.86696 23.9253 7.37116C24.1939 8.10695 24.3329 8.88373 24.3362 9.66699C24.3966 10.8753 24.4087 11.3224 24.4087 14.5003C24.4087 17.6782 24.3966 18.1253 24.3362 19.3337ZM14.5003 8.30158C13.2748 8.30396 12.0776 8.66954 11.0598 9.35212C10.042 10.0347 9.24937 11.0036 8.78205 12.1365C8.31473 13.2694 8.1937 14.5154 8.43424 15.717C8.67479 16.9187 9.26611 18.0221 10.1335 18.8878C11.0009 19.7535 12.1054 20.3426 13.3075 20.5808C14.5096 20.819 15.7554 20.6956 16.8874 20.2261C18.0193 19.7565 18.9867 18.962 19.6673 17.9429C20.3479 16.9238 20.7112 15.7258 20.7112 14.5003C20.7128 13.6848 20.5531 12.8771 20.2414 12.1235C19.9297 11.3699 19.4721 10.6854 18.8949 10.1093C18.3177 9.53322 17.6323 9.07694 16.8781 8.7667C16.1239 8.45646 15.3158 8.29839 14.5003 8.30158ZM14.5003 18.5241C13.7045 18.5241 12.9266 18.2881 12.2649 17.846C11.6031 17.4038 11.0874 16.7754 10.7829 16.0401C10.4783 15.3049 10.3986 14.4959 10.5539 13.7153C10.7091 12.9348 11.0924 12.2178 11.6551 11.6551C12.2178 11.0924 12.9348 10.7091 13.7153 10.5539C14.4959 10.3986 15.3049 10.4783 16.0401 10.7829C16.7754 11.0874 17.4038 11.6031 17.846 12.2648C18.2881 12.9266 18.5241 13.7045 18.5241 14.5003C18.5241 15.0287 18.42 15.552 18.2178 16.0401C18.0156 16.5283 17.7192 16.9719 17.3455 17.3455C16.9719 17.7192 16.5283 18.0156 16.0401 18.2178C15.552 18.42 15.0287 18.5241 14.5003 18.5241Z" fill="#B9B9B9"/>
</svg>
