<svg width="175" height="37" viewBox="0 0 175 37" fill="none" xmlns="http://www.w3.org/2000/svg">
<path fill-rule="evenodd" clip-rule="evenodd" d="M4.52973 34.955C5.31731 34.955 6.05308 34.7348 6.73703 34.2944L7.04792 34.9864C6.30179 35.4792 5.44167 35.7309 4.45719 35.7309C3.20327 35.7309 2.19807 35.3429 1.44157 34.5565C0.685078 33.7702 0.312012 32.7217 0.312012 31.4006C0.312012 30.069 0.685079 29.01 1.43121 28.2341C2.17734 27.4583 3.18254 27.0703 4.45719 27.0703C5.44167 27.0703 6.30179 27.3219 7.04792 27.8147L6.73703 28.5067C6.06344 28.0664 5.32767 27.8462 4.52973 27.8462C3.52452 27.8462 2.72658 28.1712 2.12553 28.8108C1.52448 29.4504 1.22395 30.3206 1.22395 31.4006C1.22395 32.491 1.53484 33.3508 2.14625 33.9904C2.75767 34.6299 3.55561 34.955 4.52973 34.955ZM13.5351 30.2997H11.3693V35.605H10.4677V30.2997H8.30184V29.5972H13.5455V30.2997H13.5351ZM18.7269 30.8239C18.385 30.394 17.9083 30.1843 17.3072 30.1843C16.7062 30.1843 16.2295 30.394 15.8875 30.8239C15.5455 31.2538 15.3694 31.8514 15.3694 32.6064C15.3694 33.3718 15.5455 33.9694 15.8875 34.3888C16.2295 34.8187 16.7062 35.0284 17.3072 35.0284C17.9083 35.0284 18.385 34.8187 18.7269 34.3888C19.0689 33.9589 19.2451 33.3613 19.2451 32.6064C19.2451 31.841 19.0793 31.2433 18.7269 30.8239ZM19.3384 34.8816C18.8306 35.4478 18.1466 35.7204 17.3072 35.7204C16.4575 35.7204 15.7839 35.4373 15.2761 34.8816C14.7683 34.3154 14.5092 33.5605 14.5092 32.6064C14.5092 31.6522 14.7683 30.8868 15.2761 30.3311C15.7839 29.7649 16.4678 29.4923 17.3072 29.4923C18.157 29.4923 18.8306 29.7754 19.3384 30.3311C19.8461 30.8973 20.1052 31.6522 20.1052 32.6064C20.1052 33.5605 19.8461 34.3154 19.3384 34.8816ZM27.1831 30.7505L25.1105 33.8226H24.3437L22.2711 30.7505H22.2503V35.605H21.4006V29.5972H22.4058L24.7167 33.183H24.7271L27.038 29.5972H28.0536V35.605H27.1935V30.7505H27.1831ZM31.9501 29.4818C32.7791 29.4818 33.3698 29.6601 33.7325 30.0061C34.0952 30.3521 34.2714 30.9183 34.2714 31.7151V33.9904C34.2714 34.5356 34.3335 35.0808 34.4475 35.605H33.6496C33.5874 35.301 33.5459 34.955 33.5356 34.5461H33.5149C33.3076 34.913 33.0174 35.2066 32.6236 35.4163C32.2402 35.626 31.7946 35.7309 31.3076 35.7309C30.7583 35.7309 30.3231 35.5736 29.9915 35.259C29.6599 34.9445 29.5044 34.5251 29.5044 33.9904C29.5044 33.3193 29.7946 32.7846 30.3749 32.3862C30.9552 31.9877 31.7739 31.7885 32.8413 31.7885H33.4423V31.7256C33.4423 31.1385 33.3387 30.7296 33.1211 30.5094C32.9034 30.2787 32.52 30.1634 31.9604 30.1634C31.2454 30.1634 30.5822 30.3416 29.9604 30.6981L29.8153 30.0166C30.4578 29.6706 31.1728 29.4818 31.9501 29.4818ZM30.3127 33.9589C30.3127 34.3049 30.4163 34.5775 30.634 34.7767C30.8516 34.9759 31.1314 35.0703 31.4941 35.0703C32.0226 35.0703 32.4786 34.8816 32.862 34.4936C33.2454 34.1162 33.4423 33.6444 33.4423 33.0887V32.4386H32.8413C32.0433 32.4386 31.4215 32.5749 30.9863 32.8475C30.5407 33.1306 30.3127 33.4976 30.3127 33.9589ZM40.9347 30.2997H38.7689V35.605H37.8673V30.2997H35.7014V29.5972H40.9451V30.2997H40.9347ZM46.1266 30.8239C45.7846 30.394 45.3079 30.1843 44.7068 30.1843C44.1058 30.1843 43.6291 30.394 43.2871 30.8239C42.9451 31.2538 42.769 31.8514 42.769 32.6064C42.769 33.3718 42.9451 33.9694 43.2871 34.3888C43.6291 34.8187 44.1058 35.0284 44.7068 35.0284C45.3079 35.0284 45.7846 34.8187 46.1266 34.3888C46.4685 33.9589 46.6447 33.3613 46.6447 32.6064C46.6551 31.841 46.4789 31.2433 46.1266 30.8239ZM46.738 34.8816C46.2302 35.4478 45.5462 35.7204 44.7068 35.7204C43.8571 35.7204 43.1835 35.4373 42.6757 34.8816C42.1679 34.3154 41.9088 33.5605 41.9088 32.6064C41.9088 31.6522 42.1679 30.8868 42.6757 30.3311C43.1835 29.7649 43.8674 29.4923 44.7068 29.4923C45.5566 29.4923 46.2302 29.7754 46.738 30.3311C47.2458 30.8973 47.5048 31.6522 47.5048 32.6064C47.5048 33.5605 47.2561 34.3154 46.738 34.8816ZM49.7847 32.5539V29.5972H54.1786V35.605H53.3288V30.3102H50.6033V32.6902C50.6033 33.8331 50.4375 34.6195 50.1163 35.0284C49.7847 35.4373 49.1629 35.668 48.2406 35.7204L48.1991 35.0074C48.6447 34.9864 48.966 34.913 49.1733 34.7872C49.3805 34.6614 49.536 34.4307 49.6396 34.0952C49.7329 33.7702 49.7847 33.2564 49.7847 32.5539ZM59.7124 30.8239C59.3704 30.394 58.8937 30.1843 58.2926 30.1843C57.6916 30.1843 57.2149 30.394 56.8729 30.8239C56.5309 31.2538 56.3548 31.8514 56.3548 32.6064C56.3548 33.3718 56.5309 33.9694 56.8729 34.3888C57.2149 34.8187 57.6916 35.0284 58.2926 35.0284C58.8937 35.0284 59.3704 34.8187 59.7124 34.3888C60.0543 33.9589 60.2305 33.3613 60.2305 32.6064C60.2305 31.841 60.0543 31.2433 59.7124 30.8239ZM60.3238 34.8816C59.816 35.4478 59.132 35.7204 58.2926 35.7204C57.4429 35.7204 56.7693 35.4373 56.2615 34.8816C55.7537 34.3154 55.4947 33.5605 55.4947 32.6064C55.4947 31.6522 55.7537 30.8868 56.2615 30.3311C56.7693 29.7649 57.4532 29.4923 58.2926 29.4923C59.1424 29.4923 59.816 29.7754 60.3238 30.3311C60.8316 30.8973 61.0906 31.6522 61.0906 32.6064C61.0906 33.5605 60.8316 34.3154 60.3238 34.8816ZM62.3964 29.5972H66.7384V30.3206H63.2772V35.605H62.3964V29.5972ZM68.925 34.4307H68.9457L72.3241 29.5972H73.2567V35.605H72.3862V30.7715H72.3759L68.9872 35.605H68.0545V29.5972H68.925V34.4307ZM76.3345 32.7427C75.8785 32.6378 75.5055 32.47 75.205 32.2184C74.9148 31.9668 74.7697 31.6313 74.7697 31.2119C74.7697 30.09 75.6609 29.5238 77.4537 29.5238C78.0859 29.5238 78.7076 29.5657 79.3087 29.6496V35.6155H78.4382V33.0362H77.6506C77.2361 33.0362 76.9356 33.0887 76.7801 33.1935C76.6143 33.2984 76.4278 33.5605 76.2309 33.9904L75.464 35.6155H74.5832L75.4122 33.917C75.5987 33.55 75.7542 33.2774 75.8889 33.1201C76.0236 32.9628 76.1687 32.8475 76.3449 32.7741V32.7427H76.3345ZM78.4382 32.3862V30.2472C78.1377 30.2053 77.8164 30.1738 77.4952 30.1738C76.2412 30.1738 75.6091 30.5408 75.6091 31.2748C75.6091 32.0192 76.2827 32.3862 77.6195 32.3862H78.4382ZM85.4746 34.913H88.6146V30.2892H86.1586C86.1586 31.0231 86.1586 31.5369 86.1586 31.8305C86.1586 32.124 86.1482 32.4596 86.1275 32.858C86.1068 33.2459 86.086 33.4976 86.0653 33.6129C86.0446 33.7282 86.0031 33.8855 85.941 34.0847C85.8788 34.2839 85.8166 34.4307 85.7544 34.5146C85.7026 34.5985 85.599 34.7348 85.4746 34.913ZM84.4798 34.913C84.6456 34.7033 84.7699 34.5566 84.8321 34.4727C84.9047 34.3888 84.9772 34.242 85.0601 34.0323C85.143 33.8331 85.1948 33.6653 85.2156 33.5605C85.2363 33.4451 85.257 33.204 85.2881 32.837C85.3192 32.4596 85.3296 32.124 85.3296 31.82C85.3296 31.5159 85.3296 31.0126 85.3296 30.2997V29.6077H89.454V34.9235H90.2519V36.9995H89.4229V35.6155H84.7699V36.9995H83.9409V34.9235H84.4798V34.913ZM92.5214 32.5539V29.5972H96.9153V35.605H96.0655V30.3102H93.3401V32.6902C93.3401 33.8331 93.1743 34.6195 92.853 35.0284C92.5214 35.4373 91.8996 35.668 90.9773 35.7204L90.9359 35.0074C91.3815 34.9864 91.7027 34.913 91.91 34.7872C92.1173 34.6614 92.2727 34.4307 92.3763 34.0952C92.4696 33.7702 92.5214 33.2564 92.5214 32.5539ZM99.9931 32.7427C99.5371 32.6378 99.1641 32.47 98.8635 32.2184C98.5734 31.9668 98.4283 31.6313 98.4283 31.2119C98.4283 30.09 99.3195 29.5238 101.112 29.5238C101.744 29.5238 102.366 29.5657 102.967 29.6496V35.6155H102.097V33.0362H101.309C100.895 33.0362 100.594 33.0887 100.439 33.1935C100.273 33.2984 100.086 33.5605 99.8895 33.9904L99.1226 35.6155H98.2418L99.0708 33.917C99.2573 33.55 99.4128 33.2774 99.5475 33.1201C99.6822 32.9628 99.8273 32.8475 100.003 32.7741V32.7427H99.9931ZM102.097 32.3862V30.2472C101.796 30.2053 101.475 30.1738 101.154 30.1738C99.8998 30.1738 99.2677 30.5408 99.2677 31.2748C99.2677 32.0192 99.9413 32.3862 101.278 32.3862H102.097ZM112.885 30.2997H110.719V35.605H109.817V30.2997H107.651V29.5972H112.895V30.2997H112.885ZM115.123 35.0074C115.403 35.0493 115.714 35.0808 116.045 35.0808C117.32 35.0808 117.952 34.6614 117.952 33.8226C117.952 33.0572 117.278 32.6797 115.931 32.6797H115.123V35.0074ZM115.123 32.0926H115.921C116.47 32.0926 116.895 31.9982 117.196 31.82C117.496 31.6313 117.652 31.3796 117.652 31.0546C117.652 30.436 117.092 30.1319 115.973 30.1319C115.672 30.1319 115.392 30.1529 115.113 30.2053V32.0926H115.123ZM118.802 33.875C118.802 35.0808 117.869 35.6889 116.014 35.6889C115.341 35.6889 114.75 35.647 114.252 35.5631V29.6496C114.791 29.5657 115.351 29.5238 115.921 29.5238C116.843 29.5238 117.496 29.6601 117.89 29.9327C118.284 30.2053 118.481 30.5513 118.481 30.9812C118.481 31.3272 118.367 31.6208 118.128 31.8514C117.89 32.0821 117.558 32.2499 117.133 32.3442V32.3547C117.672 32.4386 118.087 32.6168 118.377 32.879C118.657 33.1411 118.802 33.4766 118.802 33.875ZM123.994 30.8239C123.652 30.394 123.175 30.1843 122.574 30.1843C121.973 30.1843 121.496 30.394 121.154 30.8239C120.812 31.2538 120.636 31.8514 120.636 32.6064C120.636 33.3718 120.812 33.9694 121.154 34.3888C121.496 34.8187 121.973 35.0284 122.574 35.0284C123.175 35.0284 123.652 34.8187 123.994 34.3888C124.336 33.9589 124.512 33.3613 124.512 32.6064C124.512 31.841 124.346 31.2433 123.994 30.8239ZM124.605 34.8816C124.097 35.4478 123.413 35.7204 122.574 35.7204C121.724 35.7204 121.051 35.4373 120.543 34.8816C120.035 34.3154 119.776 33.5605 119.776 32.6064C119.776 31.6522 120.035 30.8868 120.543 30.3311C121.051 29.7649 121.735 29.4923 122.574 29.4923C123.424 29.4923 124.097 29.7754 124.605 30.3311C125.113 30.8973 125.372 31.6522 125.372 32.6064C125.372 33.5605 125.113 34.3154 124.605 34.8816ZM127.144 32.2604H130.802C130.792 31.5893 130.636 31.0756 130.325 30.7086C130.015 30.3416 129.579 30.1634 129.03 30.1634C128.46 30.1634 128.004 30.3416 127.672 30.7086C127.341 31.086 127.165 31.5998 127.144 32.2604ZM127.144 32.9314C127.154 33.5815 127.362 34.1057 127.735 34.4832C128.118 34.8606 128.616 35.0493 129.217 35.0493C129.807 35.0493 130.388 34.8921 130.968 34.588L131.196 35.2486C130.553 35.5736 129.869 35.7309 129.144 35.7309C128.294 35.7309 127.6 35.4478 127.082 34.8921C126.553 34.3259 126.294 33.571 126.294 32.6168C126.294 31.6417 126.543 30.8868 127.03 30.3311C127.517 29.7754 128.191 29.5028 129.03 29.5028C129.849 29.5028 130.491 29.7649 130.947 30.2892C131.403 30.8134 131.631 31.5788 131.631 32.5644C131.631 32.6693 131.621 32.7951 131.61 32.9419H127.144V32.9314ZM133.859 34.4307H133.88L137.258 29.5972H138.191V35.605H137.32V30.7715H137.31L133.921 35.605H132.989V29.5972H133.859V34.4307ZM134.626 27.8252C134.885 28.0244 135.206 28.1293 135.59 28.1293C135.973 28.1293 136.294 28.0244 136.564 27.8252C136.833 27.626 136.968 27.3744 136.989 27.0913H137.704C137.704 27.5631 137.507 27.9615 137.103 28.297C136.699 28.6326 136.201 28.7898 135.59 28.7898C134.978 28.7898 134.481 28.6221 134.077 28.297C133.673 27.9615 133.476 27.5631 133.476 27.0913H134.212C134.222 27.3744 134.367 27.626 134.626 27.8252ZM145.828 30.1843C145.155 30.1843 144.637 30.394 144.264 30.8134C143.891 31.2328 143.704 31.8305 143.704 32.5959C143.704 33.3403 143.901 33.9275 144.295 34.3678C144.688 34.8082 145.196 35.0284 145.828 35.0284C146.357 35.0284 146.875 34.9026 147.362 34.6299L147.59 35.3115C147.02 35.5841 146.419 35.7204 145.797 35.7204C144.916 35.7204 144.201 35.4373 143.652 34.8711C143.103 34.3049 142.833 33.55 142.833 32.5959C142.833 31.6208 143.093 30.8554 143.621 30.2997C144.15 29.744 144.875 29.4714 145.797 29.4714C146.419 29.4714 147.02 29.6077 147.59 29.8803L147.362 30.5828C146.844 30.3206 146.336 30.1843 145.828 30.1843ZM149.642 32.2604H153.3C153.29 31.5893 153.134 31.0756 152.823 30.7086C152.512 30.3416 152.077 30.1634 151.528 30.1634C150.958 30.1634 150.502 30.3416 150.17 30.7086C149.839 31.086 149.663 31.5998 149.642 32.2604ZM149.642 32.9314C149.663 33.5815 149.86 34.1057 150.233 34.4832C150.616 34.8606 151.113 35.0493 151.715 35.0493C152.305 35.0493 152.886 34.8921 153.466 34.588L153.694 35.2486C153.051 35.5736 152.367 35.7309 151.642 35.7309C150.792 35.7309 150.098 35.4478 149.58 34.8921C149.051 34.3259 148.792 33.571 148.792 32.6168C148.792 31.6417 149.041 30.8868 149.528 30.3311C150.015 29.7754 150.689 29.5028 151.528 29.5028C152.347 29.5028 152.989 29.7649 153.445 30.2892C153.901 30.8134 154.129 31.5788 154.129 32.5644C154.129 32.6693 154.119 32.7951 154.108 32.9419H149.642V32.9314ZM161.259 30.7505L159.197 33.8226H158.43L156.357 30.7505H156.336V35.605H155.487V29.5972H156.492L158.803 33.183H158.813L161.124 29.5972H162.14V35.605H161.279V30.7505H161.259ZM163.85 29.5972H164.679V31.4425C165.01 31.3796 165.352 31.3482 165.725 31.3482C166.627 31.3482 167.3 31.5369 167.767 31.9039C168.233 32.2813 168.461 32.7951 168.461 33.4556C168.461 34.955 167.508 35.7099 165.601 35.7099C164.969 35.7099 164.378 35.6575 163.829 35.5316V29.5972H163.85ZM164.689 32.145V34.934C164.989 35.0074 165.321 35.0389 165.684 35.0389C167 35.0389 167.663 34.5146 167.663 33.4766C167.663 32.533 166.989 32.0507 165.632 32.0507C165.29 32.0507 164.979 32.0821 164.689 32.145ZM170.658 34.4307H170.679L174.057 29.5972H174.99V35.605H174.119V30.7715H174.109L170.72 35.605H169.787V29.5972H170.658V34.4307Z" fill="#4E4E4E"/>
<path fill-rule="evenodd" clip-rule="evenodd" d="M166.14 5.33524L163.093 12.811H169.176L166.14 5.33524ZM26.3542 3.47941V19.3012C26.3542 19.7101 26.1884 20.0771 25.9086 20.3706C25.6184 20.6642 25.235 20.8215 24.8205 20.8215C24.4059 20.8215 24.0329 20.6642 23.7324 20.3706C23.4422 20.0771 23.2868 19.7101 23.2868 19.3012V3.47941H18.1364C17.7426 3.47941 17.3799 3.33262 17.1104 3.04953C16.8306 2.76644 16.6856 2.39946 16.6856 2.01152C16.6856 1.63406 16.8306 1.28806 17.0794 1.00497C17.3592 0.700904 17.7219 0.54363 18.1364 0.54363H31.4735C31.8776 0.54363 32.2507 0.711389 32.5305 1.00497C32.7792 1.27758 32.9243 1.63406 32.9243 2.01152C32.9243 2.40995 32.7792 2.77692 32.4994 3.04953C32.2196 3.32214 31.8569 3.47941 31.4735 3.47941H26.3542ZM45.1733 12.1085L51.847 1.18321C52.1786 0.658965 52.676 0.302477 53.2978 0.302477C53.7538 0.302477 54.1683 0.480721 54.4688 0.826724C54.759 1.15176 54.9144 1.55018 54.9144 1.99055V19.3012C54.9144 19.6996 54.7694 20.0561 54.4999 20.3497C54.2098 20.6642 53.8263 20.8215 53.4014 20.8215C52.9869 20.8215 52.6139 20.6642 52.3237 20.3706C52.0335 20.0771 51.8781 19.7101 51.8781 19.3012V6.85556L46.5515 15.5371C46.2407 16.0508 45.7432 16.3549 45.1422 16.3549C44.5411 16.3549 44.0437 16.0508 43.7328 15.5371L38.4063 6.85556V19.3012C38.4063 19.6996 38.2612 20.0561 37.9918 20.3497C37.7016 20.6642 37.3182 20.8215 36.9037 20.8215C36.4891 20.8215 36.1161 20.6642 35.8155 20.3706C35.5254 20.0771 35.3699 19.7101 35.3699 19.3012V1.99055C35.3699 1.5397 35.5357 1.1203 35.857 0.805754C36.1782 0.480721 36.5824 0.312962 37.0384 0.312962C37.6705 0.312962 38.1887 0.637995 38.4892 1.16224L45.1733 12.1085ZM98.0968 3.30117C98.0968 3.69959 97.9414 4.07705 97.6616 4.36014C97.3818 4.64324 97.019 4.80051 96.6149 4.80051C96.2936 4.80051 95.9931 4.67469 95.7237 4.49645C95.5061 4.36014 95.2884 4.23433 95.0605 4.10851C94.8014 3.96172 94.5216 3.8359 94.2418 3.73105C93.3506 3.40602 92.4075 3.2802 91.4542 3.2802C89.4956 3.2802 87.8789 4.03511 86.511 5.44009C85.1224 6.86604 84.4074 8.54363 84.4074 10.5463C84.4074 12.5908 85.0188 14.3733 86.4696 15.8202C87.8686 17.2042 89.5266 17.8752 91.4852 17.8752C92.4386 17.8752 93.3817 17.7389 94.2832 17.4139C94.563 17.3195 94.8428 17.1937 95.1019 17.0364C95.3403 16.9001 95.5682 16.7533 95.8066 16.617C96.0657 16.4597 96.3558 16.3444 96.6667 16.3444C97.0605 16.3444 97.4336 16.5017 97.7134 16.7848C97.9932 17.0679 98.1486 17.4348 98.1486 17.8438C98.1486 18.7979 97.2574 19.3746 96.5216 19.7206C94.9568 20.5174 93.2366 20.832 91.4956 20.832C88.7287 20.832 86.3141 19.8988 84.3141 17.9591C82.2519 15.9565 81.3296 13.4191 81.3296 10.5463C81.3296 7.73629 82.3762 5.32476 84.3348 3.34311C86.3038 1.36145 88.6872 0.312962 91.4645 0.312962C93.1951 0.312962 94.905 0.637995 96.4387 1.41388C97.2056 1.75988 98.0968 2.33655 98.0968 3.30117ZM126.481 12.0351V17.6236H136.44C136.823 17.6236 137.175 17.7809 137.445 18.0535C137.725 18.3366 137.87 18.7035 137.87 19.0915C137.87 19.4899 137.725 19.8569 137.445 20.1295C137.175 20.4021 136.823 20.5594 136.44 20.5594H124.947C124.533 20.5594 124.16 20.4021 123.859 20.1085C123.569 19.8149 123.413 19.448 123.413 19.039V2.06394C123.413 1.65503 123.579 1.28806 123.859 0.994482C124.149 0.700904 124.533 0.54363 124.947 0.54363H136.44C136.844 0.54363 137.196 0.711389 137.466 1.00497C137.714 1.27758 137.859 1.63406 137.859 2.01152C137.859 2.40995 137.714 2.77692 137.434 3.04953C137.165 3.32214 136.813 3.47941 136.429 3.47941H126.471V9.06788H135.051C135.455 9.06788 135.828 9.23563 136.108 9.52921C136.357 9.81231 136.502 10.1583 136.502 10.5358C136.502 10.9237 136.367 11.2802 136.108 11.5633C135.828 11.8674 135.466 12.0246 135.051 12.0246H126.481V12.0351ZM9.14134 5.33524L6.09464 12.811H12.1777L9.14134 5.33524ZM13.3383 15.6629L14.986 19.7101C15.2347 20.3601 15.7633 20.811 16.4887 20.811C17.4006 20.811 18.0017 20.1924 18.0017 19.2802C18.0017 19.0181 17.9498 18.756 17.8462 18.5148L10.8512 1.49776C10.5714 0.763814 9.96001 0.312962 9.16207 0.312962C8.37449 0.312962 7.7838 0.784784 7.48327 1.50824L0.477926 18.5672C0.467563 18.5882 0.467566 18.6092 0.457203 18.6301C0.384663 18.8503 0.301758 19.1124 0.301758 19.3431C0.301758 20.2448 0.902808 20.8425 1.78366 20.8425C2.48834 20.8425 3.01685 20.4021 3.27592 19.752L4.93399 15.6839H13.3383V15.6629ZM73.2361 15.7048C74.6144 14.2789 75.3087 12.5908 75.3087 10.5987C75.3087 8.59606 74.6144 6.90798 73.2361 5.47155C71.8578 4.03511 70.2101 3.33262 68.2308 3.33262C66.2619 3.33262 64.6245 4.0456 63.2462 5.47155C61.868 6.90798 61.1736 8.59606 61.1736 10.5987C61.1736 12.5908 61.868 14.2789 63.2462 15.7048C64.6245 17.1308 66.2619 17.8333 68.2308 17.8333C70.1998 17.8333 71.8578 17.1308 73.2361 15.7048ZM78.4176 10.5882C78.4176 13.4086 77.402 15.8307 75.4331 17.8228C73.4537 19.8149 71.0392 20.8215 68.2515 20.8215C65.4535 20.8215 63.039 19.8044 61.0597 17.8228C59.0803 15.8411 58.0648 13.4191 58.0648 10.5882C58.0648 7.75726 59.0803 5.31427 61.0597 3.32214C63.039 1.33 65.4535 0.302477 68.2515 0.302477C71.0495 0.302477 73.4537 1.31952 75.4331 3.32214C77.4124 5.32476 78.4176 7.75726 78.4176 10.5882ZM111.196 15.0862H111.465C112.491 15.0862 113.62 14.908 114.45 14.2369C114.46 14.2369 114.46 14.2265 114.47 14.2265C115.652 13.3248 116.066 12.0351 116.066 10.5672C116.066 9.09933 115.652 7.80968 114.47 6.90798C114.46 6.90798 114.46 6.8975 114.45 6.8975C113.62 6.22646 112.501 6.04822 111.465 6.04822H111.196V15.0862ZM108.128 15.0862V6.04822H107.89C106.864 6.04822 105.734 6.22646 104.905 6.8975C104.895 6.90798 104.895 6.90798 104.885 6.91847C103.693 7.80968 103.289 9.10982 103.289 10.5672C103.289 12.0246 103.693 13.3248 104.885 14.216C104.895 14.2265 104.895 14.2265 104.905 14.2369C105.734 14.908 106.853 15.0862 107.89 15.0862H108.128ZM111.196 18.043V19.3012C111.196 19.7101 111.03 20.0771 110.75 20.3706C110.46 20.6642 110.076 20.8215 109.662 20.8215C109.247 20.8215 108.874 20.6642 108.584 20.3706C108.294 20.0771 108.138 19.7101 108.138 19.3012V18.043H107.797C106.056 18.043 104.304 17.676 102.916 16.5646C101.03 15.0653 100.221 12.9683 100.221 10.5567C100.221 8.15569 101.03 6.0587 102.916 4.55936C104.304 3.44796 106.066 3.08098 107.807 3.08098H108.149V1.82279C108.149 1.41388 108.315 1.04691 108.594 0.753329C108.885 0.459751 109.268 0.302477 109.672 0.302477C110.087 0.302477 110.46 0.459751 110.76 0.753329C111.05 1.04691 111.206 1.41388 111.206 1.82279V3.08098H111.579C113.31 3.08098 115.051 3.44796 116.439 4.55936C118.315 6.06919 119.134 8.15569 119.134 10.5567C119.134 12.9578 118.325 15.0548 116.439 16.5646C115.051 17.6655 113.31 18.043 111.579 18.043H111.196ZM144.761 3.47941V11.0181H149.041C150.036 11.0181 151.279 10.8923 152.119 10.3261C153.176 9.57115 153.611 8.54363 153.611 7.2435C153.611 6.03773 153.269 4.98924 152.274 4.26578C151.445 3.66814 150.44 3.46893 149.435 3.46893H144.761V3.47941ZM144.761 13.9539V19.3012C144.761 19.7101 144.595 20.0771 144.316 20.3706C144.025 20.6642 143.642 20.8215 143.227 20.8215C142.813 20.8215 142.44 20.6642 142.139 20.3706C141.849 20.0771 141.694 19.7101 141.694 19.3012V2.0954C141.694 1.676 141.849 1.29855 142.139 0.994482C142.429 0.700904 142.813 0.54363 143.227 0.54363H149.642C151.3 0.54363 152.906 0.931573 154.254 1.9591C155.953 3.25923 156.699 5.11506 156.699 7.25398C156.699 8.33393 156.482 9.38242 156.015 10.347C155.559 11.2802 154.917 12.0561 154.077 12.6642C152.689 13.6603 150.917 13.9539 149.248 13.9539H144.761ZM170.347 15.6629H161.943L160.285 19.731C160.026 20.3811 159.497 20.8215 158.793 20.8215C157.912 20.8215 157.311 20.2238 157.311 19.3221C157.311 19.0915 157.394 18.8293 157.466 18.6092C157.476 18.5882 157.476 18.5672 157.487 18.5463L164.492 1.48727C164.793 0.763814 165.383 0.291992 166.171 0.291992C166.969 0.291992 167.58 0.742844 167.86 1.47679L174.855 18.5148C174.959 18.756 175.011 19.0181 175.011 19.2802C175.011 20.1924 174.409 20.811 173.498 20.811C172.772 20.811 172.254 20.3497 171.995 19.7101L170.347 15.6629Z" fill="#4E4E4E"/>
</svg>
