<svg width="23" height="23" viewBox="0 0 23 23" fill="none" xmlns="http://www.w3.org/2000/svg">
  <path d="M22.3216 20.5259C22.3216 20.5259 17.0833 28.0005 6.0545 16.9659C-5.03835 5.85252 2.50531 0.685967 2.50531 0.685967C2.74157 0.448837 3.02614 0.265355 3.33966 0.147996C3.65319 0.0306376 3.98831 -0.0178442 4.32225 0.00584739C4.65619 0.029539 4.9811 0.124848 5.27491 0.285294C5.56871 0.44574 5.82452 0.66756 6.02492 0.93567L8.14786 3.77933C8.48526 4.22959 8.64906 4.78634 8.60922 5.34754C8.56939 5.90874 8.32859 6.43679 7.93096 6.8349L6.06107 8.70767C6.06107 8.70767 6.06107 10.3603 9.36378 13.6672C12.6665 16.9742 14.3179 16.9742 14.3179 16.9742L16.1877 15.1014C16.5851 14.7035 17.1127 14.4624 17.6737 14.4226C18.2346 14.3827 18.7911 14.5468 19.2407 14.8845L22.0702 17.0103C22.3366 17.2115 22.5568 17.4674 22.7161 17.7607C22.8755 18.0541 22.9702 18.3781 22.994 18.711C23.0178 19.044 22.9702 19.3782 22.8542 19.6912C22.7382 20.0042 22.5566 20.2888 22.3216 20.5259V20.5259Z" fill="#4E4E4E"/>
</svg>
