<svg width="1920" height="335" viewBox="0 0 1920 335" fill="none" xmlns="http://www.w3.org/2000/svg">
  <path d="M1920 0H0V312H984.326C1031.64 312 1070 273.643 1070 226.326V188.507C1070 97.3799 1143.87 23.5068 1235 23.5068C1326.13 23.5068 1400 97.3799 1400 188.507V226.326C1400 273.643 1438.36 312 1485.67 312H1920V0Z" fill="#FBECEC"/>
  <path d="M1920 0H0V312H984.326C1031.64 312 1070 273.643 1070 226.326V188.507C1070 97.3799 1143.87 23.5068 1235 23.5068C1326.13 23.5068 1400 97.3799 1400 188.507V226.326C1400 273.643 1438.36 312 1485.67 312H1920V0Z" fill="url(#paint0_linear)"/>
  <circle opacity="0.1" cx="1234.5" cy="187.5" r="147.5" fill="#5F8F96"/>
  <circle cx="1234.5" cy="187.5" r="123.037" fill="#5F8F96"/>
  <path fill-rule="evenodd" clip-rule="evenodd" d="M1167.75 162.113L1165.56 169.745L1168.87 172.289C1169.61 172.849 1169.96 173.697 1169.7 174.591C1169.38 175.726 1168.32 176.317 1167.15 175.999C1166.86 175.923 1166.58 175.757 1166.33 175.59C1166.3 175.575 1166.27 175.545 1166.26 175.529L1151.29 163.93C1150.5 163.309 1150.13 162.386 1150.41 161.416C1150.69 160.432 1151.49 159.811 1152.51 159.705L1171.41 157.494C1171.75 157.449 1172.09 157.479 1172.42 157.57C1173.61 157.903 1174.21 158.948 1173.87 160.099C1173.61 161.008 1172.84 161.553 1171.91 161.644L1167.75 162.113ZM1164.37 140.943L1178.09 148.681C1178.57 148.954 1178.91 149.393 1179.04 149.923C1179.2 150.453 1179.12 151.013 1178.83 151.498C1178.55 151.982 1178.09 152.316 1177.55 152.467C1177.01 152.603 1176.45 152.543 1175.97 152.27L1162.25 144.532L1159.83 148.666C1159.55 149.136 1159.12 149.469 1158.59 149.605C1158.07 149.741 1157.53 149.666 1157.05 149.408C1156.6 149.151 1156.28 148.742 1156.12 148.257C1155.95 147.727 1156.01 147.167 1156.31 146.682L1163.26 134.841C1163.54 134.356 1164 134.023 1164.56 133.902C1165.07 133.796 1165.58 133.857 1166.04 134.114C1166.52 134.387 1166.86 134.811 1167 135.325C1167.14 135.84 1167.06 136.37 1166.8 136.84L1164.37 140.943ZM1185.45 128.753L1173.58 125.089C1172.84 124.831 1172 124.968 1171.37 125.513C1170.9 125.907 1170.64 126.437 1170.6 127.027C1170.55 127.618 1170.73 128.178 1171.14 128.632L1182.83 141.897C1183.2 142.306 1183.69 142.549 1184.26 142.594C1184.84 142.639 1185.38 142.458 1185.81 142.094C1186.26 141.716 1186.5 141.201 1186.54 140.625C1186.55 140.095 1186.38 139.596 1186.03 139.202L1178.81 131.01L1187.15 133.569C1187.91 133.796 1188.7 133.675 1189.32 133.16C1189.92 132.645 1190.18 131.903 1190.04 131.131L1188.67 122.666L1195.88 130.858C1196.25 131.267 1196.74 131.509 1197.32 131.555C1197.89 131.6 1198.43 131.419 1198.86 131.055C1199.31 130.677 1199.56 130.162 1199.59 129.586C1199.6 129.056 1199.43 128.557 1199.08 128.163L1187.38 114.898C1187 114.474 1186.5 114.201 1185.92 114.141C1185.3 114.065 1184.7 114.247 1184.23 114.64C1183.6 115.17 1183.38 115.943 1183.51 116.745L1185.45 128.753ZM1221.19 110.522C1222.17 113.353 1221.97 116.155 1220.61 118.82C1219.25 121.5 1217.09 123.347 1214.2 124.317C1211.31 125.271 1208.44 125.089 1205.69 123.771C1202.94 122.454 1201.04 120.364 1200.07 117.533C1199.08 114.686 1199.29 111.869 1200.65 109.189C1202.01 106.509 1204.17 104.646 1207.08 103.677C1209.98 102.723 1212.84 102.905 1215.59 104.237C1218.32 105.57 1220.21 107.69 1221.19 110.522ZM1245.63 102.874C1245.61 103.42 1245.38 103.919 1244.98 104.283C1244.58 104.661 1244.05 104.858 1243.51 104.843C1243.08 104.828 1242.68 104.661 1242.32 104.434C1242.11 104.298 1241.89 104.162 1241.68 104.04C1241.43 103.904 1241.17 103.768 1240.9 103.677C1240.04 103.314 1239.11 103.177 1238.18 103.147C1236.29 103.102 1234.69 103.768 1233.34 105.055C1231.94 106.372 1231.2 107.917 1231.16 109.81C1231.11 111.733 1231.65 113.444 1233.03 114.837C1234.35 116.185 1235.95 116.851 1237.85 116.897C1238.79 116.927 1239.71 116.806 1240.61 116.533C1240.87 116.458 1241.14 116.352 1241.38 116.215C1241.63 116.079 1241.88 115.943 1242.14 115.806C1242.49 115.61 1242.9 115.488 1243.3 115.504C1243.85 115.519 1244.36 115.746 1244.73 116.14C1245.12 116.533 1245.32 117.048 1245.31 117.578C1245.27 118.774 1244.22 119.471 1243.25 119.88C1241.52 120.667 1239.64 120.97 1237.74 120.909C1234.73 120.834 1232.08 119.759 1229.97 117.654C1227.77 115.488 1226.83 112.732 1226.91 109.689C1226.99 106.706 1228.21 104.177 1230.42 102.132C1232.62 100.103 1235.28 99.0433 1238.31 99.119C1240.21 99.1645 1242.05 99.5582 1243.68 100.421C1244.66 100.921 1245.68 101.678 1245.63 102.874ZM1260.63 122.515L1260.38 123.241C1260.19 123.756 1259.82 124.165 1259.33 124.407C1258.82 124.65 1258.25 124.695 1257.71 124.513C1257.17 124.332 1256.74 123.968 1256.49 123.469C1256.24 122.984 1256.19 122.424 1256.38 121.909L1256.63 121.182C1254.85 120.576 1253.21 119.592 1252.16 118.002C1250.71 115.806 1250.59 113.368 1251.42 110.915C1252.27 108.462 1253.88 106.615 1256.38 105.721C1258.19 105.085 1260.1 105.282 1261.89 105.858L1262.14 105.131C1262.33 104.616 1262.7 104.207 1263.19 103.965C1263.7 103.722 1264.27 103.677 1264.81 103.859C1265.35 104.04 1265.79 104.404 1266.03 104.904C1266.28 105.388 1266.33 105.948 1266.14 106.463L1265.89 107.19C1267.67 107.796 1269.32 108.78 1270.36 110.37C1271.81 112.566 1271.93 114.989 1271.08 117.442C1270.23 119.895 1268.63 121.757 1266.11 122.636C1264.33 123.272 1262.42 123.075 1260.63 122.515ZM1279.44 125.483L1286.1 130.586C1286.54 130.934 1287.1 131.07 1287.66 130.979C1288.18 130.904 1288.63 130.631 1288.97 130.222C1289.29 129.813 1289.43 129.329 1289.39 128.814C1289.34 128.254 1289.06 127.769 1288.61 127.421L1281.96 122.318L1284.88 118.668L1292.66 124.65C1293.08 124.968 1293.6 125.119 1294.14 125.043C1294.68 124.983 1295.16 124.71 1295.5 124.286C1295.83 123.877 1295.97 123.393 1295.92 122.878C1295.87 122.333 1295.61 121.833 1295.18 121.5L1285.73 114.247C1285.28 113.898 1284.72 113.747 1284.17 113.823C1283.61 113.883 1283.12 114.156 1282.78 114.58L1271.98 128.102C1271.64 128.541 1271.5 129.071 1271.56 129.617C1271.62 130.177 1271.92 130.661 1272.37 130.995L1281.82 138.248C1282.24 138.566 1282.76 138.717 1283.3 138.642C1283.84 138.581 1284.32 138.309 1284.66 137.885C1285 137.461 1285.15 136.946 1285.08 136.416C1285.02 135.901 1284.75 135.431 1284.32 135.098L1276.54 129.117L1279.44 125.483ZM1294.45 142.382L1290.38 145.229C1289.93 145.547 1289.37 145.653 1288.82 145.562C1288.26 145.471 1287.77 145.168 1287.44 144.714C1287.12 144.26 1286.98 143.715 1287.09 143.169C1287.18 142.624 1287.47 142.155 1287.92 141.837L1302.41 131.752C1302.87 131.434 1303.43 131.297 1303.98 131.388C1304.54 131.479 1305.02 131.782 1305.36 132.236L1309.23 137.597C1310.3 139.081 1310.98 140.747 1310.93 142.579C1310.86 144.926 1309.67 146.773 1307.74 148.121C1306.76 148.802 1305.68 149.257 1304.49 149.454C1303.35 149.635 1302.21 149.544 1301.13 149.181C1299.33 148.575 1297.94 147.212 1296.86 145.729L1294.45 142.382ZM1305.3 167.595L1302.69 160.084L1298.5 159.826C1297.57 159.766 1296.79 159.281 1296.48 158.388C1296.09 157.267 1296.62 156.207 1297.76 155.814C1298.05 155.723 1298.36 155.708 1298.67 155.708C1298.7 155.708 1298.73 155.708 1298.78 155.708L1317.81 156.919C1318.83 156.995 1319.66 157.54 1319.98 158.509C1320.32 159.478 1320.02 160.432 1319.24 161.083L1304.96 173.425C1304.71 173.652 1304.4 173.818 1304.08 173.924C1302.92 174.318 1301.8 173.788 1301.42 172.652C1301.11 171.759 1301.45 170.881 1302.14 170.29L1305.3 167.595ZM1157.19 163.309L1162.16 167.14L1163.48 162.598L1157.19 163.309ZM1216.79 117.078C1217.63 115.382 1217.74 113.671 1217.13 111.884C1216.51 110.082 1215.36 108.795 1213.64 107.932C1211.93 107.069 1210.2 106.948 1208.38 107.554C1206.55 108.159 1205.29 109.28 1204.45 110.976C1203.62 112.687 1203.51 114.398 1204.13 116.185C1204.75 117.972 1205.89 119.259 1207.6 120.122C1209.32 120.97 1211.03 121.106 1212.84 120.501C1214.66 119.895 1215.96 118.774 1216.79 117.078ZM1257.94 117.366L1260.6 109.674C1259.76 109.431 1258.8 109.295 1257.97 109.583C1257.96 109.583 1257.94 109.598 1257.92 109.598C1256.61 110.022 1255.9 111.021 1255.47 112.263C1255.04 113.505 1254.99 114.731 1255.78 115.837C1255.79 115.852 1255.79 115.867 1255.81 115.882C1256.27 116.609 1257.11 117.063 1257.94 117.366ZM1261.94 118.699C1262.79 118.956 1263.76 119.092 1264.6 118.805C1264.61 118.805 1264.61 118.789 1264.63 118.789C1265.94 118.365 1266.67 117.381 1267.1 116.124C1267.53 114.868 1267.56 113.656 1266.79 112.536C1266.79 112.52 1266.77 112.52 1266.77 112.505C1266.28 111.778 1265.43 111.309 1264.6 111.006L1261.94 118.699ZM1303.27 136.234L1297.77 140.065L1300.06 143.23C1300.6 143.972 1301.39 144.881 1302.25 145.214C1303.36 145.592 1304.32 145.38 1305.28 144.714C1306.16 144.108 1306.76 143.351 1306.76 142.261C1306.76 141.322 1306.36 140.474 1305.81 139.717L1303.27 136.234ZM1313.3 160.735L1306.99 160.356L1308.55 164.824L1313.3 160.735Z" fill="white"/>
  <path fill-rule="evenodd" clip-rule="evenodd" d="M1157.8 206.081C1158.16 207.487 1158.87 208.694 1159.94 209.703L1158.84 210.543C1157.63 209.428 1156.81 208.007 1156.38 206.265C1155.82 204.034 1156.09 202.093 1157.14 200.413C1158.21 198.732 1159.91 197.616 1162.24 197.051C1164.61 196.486 1166.64 196.684 1168.36 197.677C1170.06 198.671 1171.2 200.29 1171.76 202.536C1172.19 204.278 1172.13 205.913 1171.59 207.457L1170.23 207.212C1170.71 205.822 1170.77 204.431 1170.43 203.025C1169.98 201.238 1169.07 199.954 1167.66 199.175C1166.25 198.396 1164.6 198.228 1162.66 198.701C1160.73 199.175 1159.34 200.076 1158.47 201.452C1157.6 202.796 1157.39 204.355 1157.8 206.081ZM1179.39 221.499L1178.11 222.125L1175.99 217.908L1163.45 224.02L1162.71 222.523L1175.24 216.411L1173.12 212.163L1174.41 211.536L1179.39 221.499ZM1185.41 230.911C1184.25 229.597 1182.89 228.925 1181.29 228.894C1179.71 228.864 1178.17 229.49 1176.67 230.774C1175.17 232.057 1174.33 233.478 1174.14 235.037C1173.96 236.596 1174.44 238.017 1175.6 239.331C1176.74 240.629 1178.11 241.302 1179.7 241.332C1181.28 241.363 1182.82 240.736 1184.33 239.453C1185.83 238.169 1186.66 236.748 1186.85 235.19C1187.03 233.631 1186.55 232.21 1185.41 230.911ZM1179.75 242.921C1177.75 242.83 1176.02 241.944 1174.53 240.263C1173.05 238.582 1172.4 236.748 1172.58 234.792C1172.77 232.837 1173.76 231.079 1175.57 229.521C1177.38 227.962 1179.27 227.244 1181.26 227.336C1183.26 227.428 1184.99 228.314 1186.49 230.01C1187.98 231.691 1188.63 233.524 1188.44 235.48C1188.26 237.436 1187.25 239.193 1185.46 240.736C1183.63 242.28 1181.73 243.013 1179.75 242.921ZM1196.6 257.774L1203.47 247.368L1203.44 247.337L1195.06 251.387L1193.75 250.546L1194.12 241.348L1194.09 241.332L1187.22 251.738L1185.86 250.867L1194.26 238.108L1195.7 239.025L1195.23 249.675L1195.27 249.69L1204.94 244.969L1206.42 245.932L1198 258.69L1196.6 257.774ZM1216.19 250.989L1216.14 250.974L1210.86 257.56L1216.12 259.393L1216.19 250.989ZM1216.12 260.799L1216.11 265.505L1217.8 266.101L1217.63 249.904L1215.83 249.278L1205.39 261.777L1207.04 262.358L1210 258.675L1216.12 260.799ZM1237.43 252.594L1237.34 254.015L1232.57 253.724L1231.71 267.492L1230.02 267.385L1230.89 253.602L1226.11 253.312L1226.2 251.891L1237.43 252.594ZM1249.02 252.471C1247.29 252.762 1246 253.587 1245.15 254.901C1244.3 256.23 1244.05 257.85 1244.4 259.775C1244.74 261.701 1245.52 263.152 1246.78 264.115C1248.03 265.077 1249.52 265.414 1251.25 265.108C1252.97 264.818 1254.25 264.008 1255.1 262.678C1255.95 261.349 1256.2 259.729 1255.86 257.804C1255.52 255.879 1254.73 254.427 1253.48 253.465C1252.23 252.502 1250.74 252.166 1249.02 252.471ZM1256.5 263.473C1255.4 265.108 1253.73 266.116 1251.48 266.498C1249.25 266.88 1247.34 266.483 1245.73 265.322C1244.12 264.145 1243.11 262.403 1242.71 260.081C1242.29 257.758 1242.65 255.772 1243.76 254.137C1244.87 252.502 1246.55 251.493 1248.77 251.111C1251 250.729 1252.92 251.127 1254.52 252.288C1256.11 253.465 1257.11 255.207 1257.53 257.544C1257.95 259.852 1257.61 261.838 1256.5 263.473ZM1277.03 257.392L1275.5 258.079L1269.73 245.488L1264.19 247.964L1266.88 253.847C1267.71 255.665 1268.19 257.101 1268.35 258.171C1268.5 259.24 1268.35 260.127 1267.9 260.814C1267.45 261.502 1266.63 262.174 1265.44 262.801L1264.79 261.594C1265.28 261.334 1265.67 261.074 1265.95 260.83C1266.23 260.585 1266.45 260.295 1266.62 259.943C1266.79 259.592 1266.83 259.179 1266.77 258.706C1266.71 258.217 1266.57 257.651 1266.34 256.979C1266.12 256.307 1265.78 255.497 1265.33 254.519L1262.05 247.353L1270.65 243.517L1277.03 257.392ZM1280.42 237.65C1279.09 238.781 1278.39 240.125 1278.34 241.684C1278.3 243.242 1278.92 244.77 1280.22 246.268C1281.5 247.765 1282.94 248.606 1284.5 248.804C1286.08 249.003 1287.54 248.544 1288.87 247.414C1290.2 246.298 1290.88 244.954 1290.93 243.395C1290.97 241.837 1290.35 240.309 1289.05 238.811C1287.77 237.314 1286.33 236.473 1284.77 236.275C1283.2 236.061 1281.75 236.519 1280.42 237.65ZM1292.53 243.349C1292.64 241.393 1291.92 239.499 1290.37 237.711C1288.82 235.908 1287.04 234.915 1285.06 234.716C1283.08 234.517 1281.22 235.144 1279.51 236.596C1277.79 238.047 1276.86 239.758 1276.75 241.73C1276.64 243.701 1277.35 245.58 1278.92 247.383C1280.46 249.186 1282.24 250.179 1284.23 250.378C1286.21 250.577 1288.06 249.95 1289.8 248.499C1291.51 247.016 1292.43 245.32 1292.53 243.349ZM1290.34 227.886L1301.6 235.969L1300.57 237.375L1288.09 228.421L1293.26 221.392L1294.45 222.248L1290.34 227.886ZM1299.45 208.603L1308.19 220.643L1308.18 220.689L1296.43 215.998L1295.82 217.526L1310.1 223.241L1310.75 221.636L1302.02 209.596L1302.04 209.565L1313.78 214.256L1314.4 212.743L1300.12 207.044L1299.45 208.603ZM1304.26 194.148C1304.03 194.774 1303.85 195.447 1303.72 196.165C1303.21 199.053 1303.92 200.672 1305.87 200.993C1306.93 201.177 1307.79 200.932 1308.46 200.244C1309.12 199.572 1309.6 198.411 1309.9 196.791L1310.19 195.141L1304.26 194.148ZM1311.51 195.401L1311.21 197.051C1311.03 198.121 1311.03 198.854 1311.2 199.267C1311.38 199.664 1311.92 200.168 1312.85 200.749L1316.94 203.27L1316.64 204.981L1312.53 202.414C1311.17 201.559 1310.38 200.795 1310.14 200.122H1310.1C1309.65 201.1 1309.03 201.818 1308.23 202.261C1307.42 202.705 1306.49 202.827 1305.44 202.643C1304.12 202.414 1303.2 201.757 1302.65 200.657C1302.11 199.557 1302 198.044 1302.34 196.134C1302.59 194.759 1302.92 193.506 1303.34 192.345L1318.42 194.942L1318.13 196.593L1311.51 195.401Z" fill="white"/>
  <path fill-rule="evenodd" clip-rule="evenodd" d="M1227.63 209.974C1223.61 209.51 1219.39 208.105 1216.25 205.526C1207.36 198.237 1200.67 181.666 1202.39 170.347C1203.58 162.563 1208.66 155.32 1216.44 152.865C1223.3 150.687 1229.74 152.232 1235.93 155.506C1242.11 152.232 1248.55 150.687 1255.41 152.865C1264.18 155.645 1269.41 164.37 1269.73 173.173C1269.96 179.751 1268.71 186.963 1267.07 193.326C1265.45 199.611 1263.1 206.298 1259.93 211.997C1257.6 216.166 1254.9 221.695 1249.27 221.695C1242.91 221.68 1240.65 216.568 1240.65 211.055V208.321L1240.36 208.414H1240.35C1238 209.294 1235.54 209.85 1233.04 210.051C1232.32 215.996 1230.05 221.139 1223.19 221.649C1219.21 221.942 1215.42 219.008 1214.6 215.178L1214.58 215.101C1214.28 213.711 1215.17 212.336 1216.58 212.028L1216.72 211.997C1217.42 211.842 1218.08 211.966 1218.69 212.352C1219.3 212.738 1219.67 213.278 1219.83 213.989L1219.85 214.066C1220.13 215.332 1221.44 216.444 1222.77 216.336C1223.75 216.259 1224.74 216.012 1225.5 215.348C1226.86 214.174 1227.39 211.657 1227.63 209.974ZM1248.02 203.997C1247.87 204.136 1247.69 204.275 1247.51 204.414L1247.44 204.46C1247.4 204.491 1247.35 204.538 1247.3 204.568C1246.91 204.846 1246.46 205.155 1245.99 205.449V211.039C1245.99 212.445 1246.05 214.421 1247.07 215.518C1247.65 216.135 1248.41 216.352 1249.24 216.352C1251.8 216.352 1254.15 211.271 1255.18 209.418C1260.44 199.951 1264.71 184.153 1264.32 173.342C1264.09 166.81 1260.32 160 1253.74 157.915C1247.82 156.031 1242.43 157.868 1237.25 160.834L1237.22 160.849C1236.4 161.328 1235.43 161.328 1234.6 160.849L1234.57 160.834C1229.39 157.868 1224 156.031 1218.08 157.915C1212.28 159.753 1208.58 165.358 1207.7 171.119C1206.27 180.585 1212.25 195.318 1219.69 201.418C1221.96 203.271 1225.11 204.275 1227.99 204.646C1227.99 204.538 1227.99 204.43 1227.99 204.337L1228.41 183.427C1228.58 174.578 1235.15 171.072 1243.33 171.304H1243.36C1244.79 171.35 1245.91 172.493 1245.91 173.898V174.022C1245.91 175.443 1244.76 176.601 1243.32 176.616H1242.65C1242.63 176.616 1242.61 176.616 1242.6 176.616C1242.15 176.616 1241.69 176.632 1241.26 176.647H1241.21C1236.66 176.894 1233.88 178.825 1233.79 183.535L1233.36 204.445C1233.36 204.522 1233.36 204.599 1233.36 204.661C1235.88 204.352 1238.33 203.626 1240.58 202.484L1240.57 181.496C1240.57 180.076 1241.74 178.902 1243.19 178.902H1243.29C1244.72 178.902 1245.9 180.06 1245.91 181.481C1245.93 187.21 1245.97 192.924 1245.97 198.654C1248.76 195.982 1249.65 194.052 1251.16 190.546L1251.19 190.484C1251.48 189.82 1251.96 189.357 1252.63 189.094C1253.3 188.832 1253.98 188.832 1254.63 189.11L1254.76 189.172C1255.41 189.45 1255.9 189.928 1256.16 190.592C1256.43 191.257 1256.43 191.921 1256.13 192.569L1256.1 192.631C1253.99 197.526 1252.07 200.723 1248.02 203.997Z" fill="white"/>
  <defs>
    <linearGradient id="paint0_linear" x1="1920" y1="0" x2="104.737" y2="619.1" gradientUnits="userSpaceOnUse">
      <stop stop-color="#FFDCDC"/>
      <stop offset="1" stop-color="#FFEDED"/>
    </linearGradient>
  </defs>
</svg>
