<svg width="100" height="100" viewBox="0 0 100 100" fill="none" xmlns="http://www.w3.org/2000/svg">
  <circle opacity="0.2" cx="50" cy="50" r="50" fill="#CBCBCB"/>
  <g clip-path="url(#clip0)">
    <path d="M69.9313 58.5506C70.6092 58.5506 71.2814 58.4314 71.9452 58.1929C76.5087 56.5529 78.8448 49.6751 78.942 49.3832C79.0515 49.054 79.0043 48.6927 78.8137 48.403C78.6232 48.1131 78.3103 47.9266 77.9647 47.8967C74.4489 47.5935 71.5804 48.1658 69.422 49.5996C69.5952 48.4501 69.6945 47.3456 69.7413 46.3093C69.7596 46.3094 69.7777 46.3095 69.7959 46.3095C71.3678 46.3095 72.719 45.7986 73.8228 44.7845C77.1037 41.7702 76.8086 35.2992 76.7945 35.0252C76.776 34.6682 76.59 34.3408 76.2928 34.142C75.9955 33.9434 75.6218 33.8967 75.2849 34.016C72.1435 35.1291 70.2596 36.6867 69.1359 38.2292C68.9849 37.4531 68.8345 36.8289 68.7195 36.3911C69.62 35.0789 69.9388 33.6832 69.667 32.231C68.8957 28.1083 63.4283 25.1884 63.1959 25.0661C62.8878 24.9039 62.5224 24.8925 62.2047 25.035C61.8871 25.1775 61.6526 25.458 61.5688 25.796C60.7393 29.1401 61.005 31.9269 62.3586 34.0784C63.699 36.2093 65.7267 37.0621 66.6252 37.3491C66.911 38.5193 67.3439 40.6611 67.4729 43.3128C64.9892 40.3986 61.162 38.6908 61.1139 38.6765C60.8072 38.5851 60.4762 38.6278 60.2024 38.7938C59.9288 38.9599 59.7381 39.2342 59.6779 39.5485C58.9007 43.5973 59.3872 46.9007 61.1238 49.3672C62.8578 51.8297 65.332 52.6916 66.3594 52.9551C66.2817 53.2141 64.9184 56.7497 64.1942 58.0058C63.2649 53.4439 58.4533 49.4454 58.2262 49.259C57.9557 49.0369 57.5976 48.9526 57.2561 49.0301C56.9148 49.1078 56.6286 49.3389 56.4806 49.6561C54.6832 53.5122 54.3355 56.9542 55.4474 59.8865C56.2884 62.1046 57.7865 63.5198 58.8929 64.3156C57.3706 65.612 55.6511 66.7824 53.7375 67.8248C54.0777 67.0561 54.3047 66.2036 54.3047 65.2972C54.3047 61.7561 50.8404 59.0366 50.693 58.9226C50.2848 58.6071 49.7151 58.6071 49.3071 58.9226C49.1596 59.0366 45.6953 61.756 45.6953 65.2971C45.6953 66.2034 45.9223 67.0559 46.2625 67.8247C44.349 66.7823 42.6294 65.6119 41.107 64.3155C42.2134 63.5196 43.7115 62.1045 44.5525 59.8863C45.6644 56.9539 45.3167 53.512 43.5193 49.6559C43.3713 49.3386 43.0851 49.1075 42.7438 49.0299C42.4025 48.9524 42.0444 49.0368 41.7737 49.2588C41.5466 49.4452 36.735 53.4436 35.8057 58.0056C35.0815 56.7493 33.7182 53.2139 33.6405 52.9548C34.6679 52.6913 37.1421 51.8295 38.8761 49.367C40.6127 46.9006 41.0991 43.5971 40.322 39.5483C40.2617 39.234 40.0711 38.9597 39.7975 38.7935C39.524 38.6276 39.1926 38.5849 38.886 38.6763C38.838 38.6906 35.0108 40.3983 32.527 43.3126C32.6562 40.6606 33.0889 38.5189 33.3748 37.3488C34.2734 37.0618 36.301 36.2091 37.6415 34.0782C38.9949 31.9266 39.2607 29.1399 38.4313 25.7957C38.3474 25.4579 38.1129 25.1773 37.7953 25.0348C37.4778 24.8923 37.1122 24.9037 36.8042 25.0659C36.5719 25.1882 31.1044 28.1081 30.3331 32.2308C30.0613 33.6829 30.38 35.0788 31.2806 36.3908C31.1656 36.8287 31.0153 37.4528 30.8643 38.2289C29.7405 36.6865 27.8567 35.129 24.7152 34.0158C24.3783 33.8963 24.0045 33.943 23.7074 34.1417C23.4101 34.3405 23.2241 34.6679 23.2057 35.025C23.1915 35.299 22.8964 41.77 26.1774 44.7843C27.2813 45.7985 28.6321 46.3093 30.2042 46.3093C30.2223 46.3093 30.2406 46.3092 30.2587 46.3091C30.3056 47.3454 30.4048 48.4498 30.578 49.5993C28.4197 48.1655 25.5516 47.593 22.0353 47.8966C21.6897 47.9265 21.3768 48.113 21.1863 48.4029C20.9957 48.6927 20.9484 49.0539 21.0581 49.3831C21.1553 49.675 23.4914 56.5528 28.0548 58.1927C28.7187 58.4314 29.3907 58.5505 30.0687 58.5505C31.0722 58.5505 32.0884 58.2895 33.1095 57.7686C33.4166 58.3866 34.9591 60.9205 35.4203 61.5446C32.8077 61.1711 29.417 61.6895 25.2136 64.242C24.9184 64.4213 24.721 64.7255 24.6778 65.068C24.6344 65.4106 24.7497 65.7544 24.991 66.0015C25.2374 66.254 30.822 71.908 36.3393 71.908C36.6158 71.908 36.8926 71.8937 37.1681 71.8638C39.3962 71.6227 41.2458 70.4288 42.6712 68.3137C43.9964 69.1865 45.4239 69.9894 46.9525 70.7219C45.6655 71.1466 44.3201 71.5313 42.9167 71.8757C42.3092 72.0248 41.9374 72.6383 42.0866 73.2459C42.2135 73.7629 42.6764 74.1089 43.1859 74.1089C43.2753 74.1089 43.3661 74.0983 43.4569 74.0761C45.7873 73.5041 47.9691 72.8238 50.0002 72.0369C52.0314 72.8238 54.2133 73.5041 56.5436 74.0761C56.6343 74.0983 56.7252 74.1089 56.8146 74.1089C57.3241 74.1089 57.787 73.7627 57.9139 73.2459C58.0629 72.6383 57.6913 72.0249 57.0837 71.8757C55.6804 71.5313 54.335 71.1465 53.048 70.7219C54.5766 69.9894 56.0042 69.1865 57.3293 68.3137C58.7546 70.4288 60.6043 71.6226 62.8324 71.8638C63.1084 71.8937 63.3843 71.908 63.6612 71.908C69.1781 71.908 74.763 66.2541 75.0095 66.0015C75.2508 65.7543 75.366 65.4106 75.3227 65.068C75.2793 64.7255 75.082 64.4213 74.7869 64.242C70.5835 61.6895 67.1929 61.1711 64.5801 61.5446C65.041 60.9205 66.5835 58.3866 66.8906 57.7686C67.9117 58.2896 68.9278 58.5506 69.9313 58.5506ZM74.5055 36.7867C74.3707 38.8063 73.841 41.6936 72.2872 43.1185C71.6146 43.7353 70.7959 44.0408 69.7996 44.0432C69.6155 42.5393 69.7767 39.0634 74.5055 36.7867ZM69.6948 52.2827C71.2851 50.9434 73.3508 50.0826 76.1839 50.0826C76.1996 50.0826 76.2152 50.0826 76.231 50.0827C75.2944 52.1725 73.4932 55.2291 71.1791 56.0607C70.1324 56.437 69.0568 56.3333 67.9055 55.7428C67.9358 55.5368 68.6263 53.1825 69.6948 52.2827ZM66.9109 35.0189C66.9023 35.0234 66.8937 35.0281 66.8852 35.0327C66.1798 34.7384 65.0526 34.1058 64.2763 32.8717C63.4628 31.5786 63.1923 29.9066 63.4673 27.8876C65.0316 28.9634 67.0887 30.7597 67.4406 32.6507C67.5912 33.4602 67.4177 34.2403 66.9109 35.0189ZM30.201 44.0432C29.2046 44.0408 28.3856 43.7354 27.7128 43.1185C26.159 41.6938 25.6293 38.8063 25.4945 36.7867C30.227 39.0652 30.3849 42.5442 30.201 44.0432ZM28.8241 56.0617C26.5167 55.2346 24.7115 52.175 23.7713 50.0827C23.7861 50.0826 23.8013 50.0826 23.8161 50.0826C26.6488 50.0826 28.8276 50.8202 30.3052 52.2827C31.0305 53.0006 31.4759 53.7878 31.7446 54.4679C31.8011 54.6359 32.0643 55.5366 32.0946 55.7428C30.9447 56.3328 29.8699 56.4367 28.8241 56.0617ZM32.5594 32.6507C32.9113 30.7598 34.9685 28.9634 36.5328 27.8876C36.8057 29.892 36.541 31.5546 35.7412 32.8439C34.9628 34.0985 33.8193 34.7387 33.1087 35.0346C33.1039 35.0319 33.0991 35.0293 33.0941 35.0267C32.5834 34.2455 32.4083 33.4628 32.5594 32.6507ZM32.8252 47.367C33.3116 44.868 36.3208 42.7023 38.329 41.5142C38.6162 44.2057 38.1857 46.394 37.0434 48.0345C35.9215 49.6456 34.3401 50.3583 33.4659 50.6456C33.0921 50.0555 32.5736 48.6598 32.8252 47.367ZM36.9277 69.6111C33.4974 69.9827 29.578 67.0462 27.7114 65.4317C31.0076 63.7123 33.9197 63.3995 36.502 64.1178C38.5894 64.6985 40.3922 66.9061 40.6322 67.2775C39.617 68.6856 38.4002 69.4507 36.9277 69.6111ZM39.4094 62.7277C39.3606 62.6814 37.978 61.3425 37.9173 59.5512C37.8196 56.6684 40.505 53.6201 42.0735 52.0621C43.0602 54.7241 43.1864 57.0699 42.4462 59.051C41.7034 61.0391 40.2312 62.2048 39.4094 62.7277ZM50.0019 69.2456C49.1925 68.4284 47.9609 66.9183 47.9609 65.2971C47.9609 63.6644 49.1905 62.16 49.9999 61.3465C50.8099 62.1605 52.039 63.6646 52.039 65.2971C52.039 66.9285 50.8113 68.4318 50.0019 69.2456ZM57.5538 59.0511C56.8137 57.07 56.9399 54.7242 57.9265 52.0622C59.4952 53.6203 62.124 56.6671 62.0827 59.5513C62.0673 60.6263 61.6704 61.579 60.8745 62.4403C60.8271 62.4902 60.7796 62.54 60.7317 62.5895C60.6859 62.6359 60.639 62.6819 60.5907 62.7276C59.767 62.2035 58.2961 61.0379 57.5538 59.0511ZM72.2966 65.4359C70.1689 67.2755 66.289 69.9599 63.076 69.6113C61.6017 69.4518 60.3841 68.6867 59.3679 67.2774C59.608 66.906 61.6681 64.7126 63.4982 64.1177C66.0493 63.2886 68.9972 63.7131 72.2966 65.4359ZM62.9763 48.0626C61.8192 46.4192 61.3821 44.2211 61.6711 41.514C63.6792 42.7022 66.5481 44.8994 67.1748 47.3669C67.4264 48.3577 66.9066 50.0587 66.5314 50.6498C65.666 50.3701 64.1096 49.6719 62.9763 48.0626Z" fill="#5F8F96"/>
  </g>
  <defs>
    <clipPath id="clip0">
      <rect width="58" height="58" fill="white" transform="translate(21 21)"/>
    </clipPath>
  </defs>
</svg>
