<svg width="100" height="100" viewBox="0 0 100 100" fill="none" xmlns="http://www.w3.org/2000/svg">
  <circle opacity="0.2" cx="50" cy="50" r="50" fill="#CBCBCB"/>
  <path d="M50.8496 30.2891C50.3186 30.0059 49.6814 30.0059 49.1504 30.2891L24.6816 42.9766L23.3327 43.6633C22.6013 44.0356 22.6051 45.0819 23.3392 45.4489L24.625 46.0918V61.3848C23.5417 62.0149 22.8125 63.1619 22.8125 64.5C22.8125 66.5037 24.4338 68.125 26.4375 68.125C28.4412 68.125 30.0625 66.5037 30.0625 64.5C30.0625 63.1619 29.3333 62.0149 28.25 61.3848V47.9609L31.875 49.8301V59.0625C31.875 59.8625 32.2432 60.5847 32.668 61.0449C33.0928 61.5051 33.6096 61.7812 34.1406 62.0645C35.2097 62.6238 36.4771 63.0203 38.0488 63.3672C41.1924 64.0681 45.3838 64.5 50 64.5C54.6162 64.5 58.8076 64.0681 61.9512 63.3672C63.5229 63.0203 64.7903 62.6238 65.8594 62.0645C66.3904 61.7812 66.9072 61.5051 67.332 61.0449C67.7568 60.5847 68.125 59.8625 68.125 59.0625V49.8301L75.3184 46.1484L76.6831 45.4537C77.4115 45.0828 77.4115 44.0422 76.6831 43.6713L75.3184 42.9766L50.8496 30.2891ZM48.6173 34.6321C49.4841 34.182 50.5159 34.182 51.3827 34.6321L68.7775 43.6659C69.4997 44.041 69.4954 45.0756 68.77 45.4446L67.2754 46.2051C66.8647 45.7732 66.3691 45.4546 65.8594 45.1855C64.7974 44.6262 63.5229 44.2297 61.9512 43.8828C58.8147 43.1819 54.6375 42.75 50 42.75C45.3625 42.75 41.1853 43.1819 38.0488 43.8828C36.4771 44.2297 35.2026 44.6262 34.1406 45.1855C33.6309 45.4546 33.1353 45.7732 32.7246 46.2051L31.23 45.4446C30.5046 45.0756 30.5003 44.041 31.2225 43.6659L48.6173 34.6321ZM50 46.375C54.425 46.375 58.4041 46.7786 61.1582 47.3945C62.5317 47.699 63.6362 48.053 64.2168 48.3574C64.4009 48.4565 64.4292 48.5273 64.5 48.584V55.4941C63.7424 55.218 62.9141 54.9702 61.9512 54.7578C58.8076 54.0569 54.6162 53.625 50 53.625C45.3838 53.625 41.1924 54.0569 38.0488 54.7578C37.0859 54.9702 36.2576 55.218 35.5 55.4941V48.584C35.5708 48.5273 35.5991 48.4565 35.7832 48.3574C36.3638 48.053 37.4683 47.699 38.8418 47.3945C41.5959 46.7786 45.575 46.375 50 46.375ZM50 57.25C54.3967 57.25 58.397 57.6536 61.1582 58.2695C62.3052 58.5244 63.0273 58.7935 63.6504 59.0625C63.0273 59.3315 62.3052 59.6006 61.1582 59.8555C58.397 60.4714 54.3967 60.875 50 60.875C45.6033 60.875 41.603 60.4714 38.8418 59.8555C37.6948 59.6006 36.9727 59.3315 36.3496 59.0625C36.9727 58.7935 37.6948 58.5244 38.8418 58.2695C41.603 57.6536 45.6033 57.25 50 57.25Z" fill="#5F8F96"/>
</svg>
