<svg width="80" height="80" viewBox="0 0 80 80" fill="none" xmlns="http://www.w3.org/2000/svg">
<rect width="80" height="80" rx="40" transform="matrix(-1 0 0 1 80 0)" fill="#414141" fill-opacity="0.1"/>
<g clip-path="url(#clip0)">
<path fill-rule="evenodd" clip-rule="evenodd" d="M44 45.5344C44.0031 45.1496 43.8602 44.7779 43.6 44.4944L39.348 40.0004L43.6 35.5064C43.8605 35.2237 44.0052 34.8533 44.0052 34.4689C44.0052 34.0844 43.8605 33.7141 43.6 33.4314C43.4754 33.2954 43.3239 33.1869 43.1551 33.1126C42.9863 33.0383 42.8039 33 42.6195 33C42.4351 33 42.2527 33.0383 42.0839 33.1126C41.9151 33.1869 41.7636 33.2954 41.639 33.4314L36.407 38.9634C36.1454 39.2449 36 39.615 36 39.9994C36 40.3837 36.1454 40.7538 36.407 41.0354L41.634 46.5694C41.7586 46.7053 41.9101 46.8139 42.0789 46.8881C42.2477 46.9624 42.4301 47.0008 42.6145 47.0008C42.7989 47.0008 42.9813 46.9624 43.1501 46.8881C43.3189 46.8139 43.4704 46.7053 43.595 46.5694C43.8549 46.2876 43.9979 45.9176 43.995 45.5344" fill="white"/>
</g>
<defs>
<clipPath id="clip0">
<rect width="14" height="14" fill="white" transform="translate(33 33)"/>
</clipPath>
</defs>
</svg>
