<svg width="80" height="80" viewBox="0 0 80 80" fill="none" xmlns="http://www.w3.org/2000/svg">
  <rect width="80" height="80" rx="40" fill="#414141" fill-opacity="0.3"/>
  <g clip-path="url(#clip0)">
    <path fill-rule="evenodd" clip-rule="evenodd" d="M36 45.5344C35.9969 45.1496 36.1398 44.7779 36.4 44.4944L40.652 40.0004L36.4 35.5064C36.1395 35.2237 35.9948 34.8533 35.9948 34.4689C35.9948 34.0844 36.1395 33.7141 36.4 33.4314C36.5246 33.2954 36.6761 33.1869 36.8449 33.1126C37.0137 33.0383 37.1961 33 37.3805 33C37.5649 33 37.7473 33.0383 37.9161 33.1126C38.0849 33.1869 38.2364 33.2954 38.361 33.4314L43.593 38.9634C43.8546 39.2449 44 39.615 44 39.9994C44 40.3837 43.8546 40.7538 43.593 41.0354L38.366 46.5694C38.2414 46.7053 38.0899 46.8139 37.9211 46.8881C37.7523 46.9624 37.5699 47.0008 37.3855 47.0008C37.2011 47.0008 37.0187 46.9624 36.8499 46.8881C36.6811 46.8139 36.5296 46.7053 36.405 46.5694C36.1451 46.2876 36.0021 45.9176 36.005 45.5344" fill="white"/>
  </g>
  <defs>
    <clipPath id="clip0">
      <rect width="14" height="14" fill="white" transform="matrix(-1 0 0 1 47 33)"/>
    </clipPath>
  </defs>
</svg>
