<svg width="59" height="59" viewBox="0 0 59 59" fill="none" xmlns="http://www.w3.org/2000/svg">
<rect opacity="0.2" x="-0.5" y="0.5" width="58" height="58" rx="29" transform="matrix(-1 0 0 1 58 0)" stroke="black"/>
<g clip-path="url(#clip0)">
<path fill-rule="evenodd" clip-rule="evenodd" d="M33 34.5339C33.0031 34.1491 32.8602 33.7774 32.6 33.4939L28.348 28.9999L32.6 24.5059C32.8605 24.2232 33.0052 23.8528 33.0052 23.4684C33.0052 23.084 32.8605 22.7136 32.6 22.4309C32.4754 22.2949 32.3239 22.1864 32.1551 22.1121C31.9863 22.0379 31.8039 21.9995 31.6195 21.9995C31.4351 21.9995 31.2527 22.0379 31.0839 22.1121C30.9151 22.1864 30.7636 22.2949 30.639 22.4309L25.407 27.9629C25.1454 28.2444 25 28.6146 25 28.9989C25 29.3832 25.1454 29.7533 25.407 30.0349L30.634 35.5689C30.7586 35.7048 30.9101 35.8134 31.0789 35.8877C31.2477 35.9619 31.4301 36.0003 31.6145 36.0003C31.7989 36.0003 31.9813 35.9619 32.1501 35.8877C32.3189 35.8134 32.4704 35.7048 32.595 35.5689C32.8549 35.2872 32.9979 34.9172 32.995 34.5339" fill="#2D2D2D"/>
</g>
<defs>
<clipPath id="clip0">
<rect width="14" height="14" fill="white" transform="translate(22 22)"/>
</clipPath>
</defs>
</svg>
