<svg width="29" height="29" viewBox="0 0 29 29" fill="none" xmlns="http://www.w3.org/2000/svg">
<path d="M18.2135 2.41699H10.7998C4.02808 2.41699 2.41699 4.02808 2.41699 10.7872V18.2008C2.41699 24.9725 4.01555 26.5837 10.7872 26.5837H18.2008C24.9726 26.5837 26.5837 24.9851 26.5837 18.2134V10.7998C26.5837 4.02808 24.9851 2.41699 18.2135 2.41699ZM21.9265 19.6609H20.1644C19.4973 19.6609 19.2959 19.1196 18.1002 17.9239C17.0554 16.917 16.6149 16.7911 16.3506 16.7911C15.9856 16.7911 15.8848 16.8918 15.8848 17.3953V18.9812C15.8848 19.4092 15.7464 19.6609 14.6262 19.6609C13.5392 19.5878 12.4851 19.2576 11.5506 18.6974C10.6162 18.1372 9.82825 17.363 9.25163 16.4386C7.88271 14.7348 6.93025 12.735 6.46997 10.5984C6.46997 10.3341 6.57064 10.0949 7.07414 10.0949H8.83626C9.28939 10.0949 9.45304 10.2963 9.62923 10.762C10.4851 13.2794 11.9452 15.4695 12.5368 15.4695C12.7633 15.4695 12.864 15.3688 12.864 14.8024V12.2095C12.7885 11.0264 12.1592 10.9256 12.1592 10.4977C12.1675 10.3848 12.2194 10.2796 12.304 10.2044C12.3886 10.1292 12.4992 10.0899 12.6123 10.0949H15.3814C15.759 10.0949 15.8848 10.2837 15.8848 10.7368V14.236C15.8848 14.6136 16.0485 14.7394 16.1618 14.7394C16.3883 14.7394 16.5645 14.6136 16.9799 14.1982C17.8725 13.1098 18.6018 11.8971 19.1449 10.5984C19.2003 10.4421 19.3054 10.3083 19.444 10.2174C19.5827 10.1265 19.7473 10.0834 19.9127 10.0949H21.6748C22.2034 10.0949 22.3167 10.3592 22.2034 10.7368C21.5623 12.1727 20.769 13.5357 19.8372 14.8024C19.6484 15.0919 19.5728 15.2429 19.8372 15.5828C20.0133 15.8471 20.6301 16.3631 21.0455 16.854C21.6496 17.4567 22.1513 18.1539 22.5307 18.9183C22.6817 19.4092 22.43 19.6609 21.9265 19.6609Z" fill="#B9B9B9"/>
</svg>
