<svg width="29" height="29" viewBox="0 0 29 29" fill="none" xmlns="http://www.w3.org/2000/svg">
  <path fill-rule="evenodd" clip-rule="evenodd"
        d="M22.2067 6.80041C20.1605 4.75427 17.4418 3.625 14.546 3.625C8.57752 3.625 3.71704 8.48193 3.71704 14.4504C3.7135 16.3585 4.21265 18.2206 5.16138 19.8632L3.625 25.4741L9.36694 23.9661C10.9458 24.8298 12.73 25.283 14.5425 25.2865H14.546C20.5145 25.2865 25.3715 20.4296 25.375 14.4575C25.375 11.5653 24.2493 8.84656 22.2067 6.80041ZM14.546 23.4563H14.5425C12.9282 23.4563 11.3423 23.0209 9.96167 22.2031L9.63245 22.0084L6.22339 22.9005L7.13318 19.58L6.92078 19.2401C6.01807 17.8064 5.5437 16.1497 5.5437 14.4504C5.5437 9.49084 9.58289 5.4552 14.5496 5.4552C16.9532 5.4552 19.2118 6.39331 20.911 8.09253C22.6102 9.79529 23.5448 12.0538 23.5448 14.4575C23.5448 19.4207 19.5056 23.4563 14.546 23.4563ZM19.4808 16.7161C19.2118 16.5815 17.8807 15.9266 17.6329 15.8381C17.3851 15.7461 17.2046 15.7036 17.024 15.9727C16.8435 16.2452 16.3267 16.8541 16.1674 17.0347C16.0116 17.2117 15.8523 17.2365 15.5833 17.1019C15.3107 16.9674 14.4398 16.6807 13.4061 15.7567C12.6025 15.0416 12.0574 14.1531 11.9016 13.884C11.7423 13.6115 11.8839 13.4663 12.0184 13.3318C12.1423 13.2114 12.291 13.0167 12.4255 12.8574C12.5601 12.7017 12.6061 12.5884 12.6981 12.4078C12.7866 12.2273 12.7406 12.068 12.6733 11.9335C12.6061 11.799 12.0645 10.4644 11.8379 9.92273C11.6184 9.39526 11.3954 9.4696 11.229 9.45898C11.0732 9.4519 10.8927 9.45191 10.7122 9.45191C10.5316 9.45191 10.2378 9.51917 9.98999 9.79175C9.74219 10.0608 9.0448 10.7157 9.0448 12.0468C9.0448 13.3778 10.0148 14.6664 10.1493 14.8469C10.2838 15.0239 12.0574 17.7568 14.7726 18.9286C15.4169 19.2083 15.9196 19.3746 16.3125 19.4985C16.9603 19.7039 17.5515 19.6755 18.0188 19.6083C18.5392 19.5304 19.6189 18.9534 19.8455 18.3197C20.0685 17.6896 20.0685 17.1479 20.0012 17.0347C19.934 16.9214 19.7534 16.8541 19.4808 16.7161Z"
        fill="#626262"/>
</svg>
