<svg width="34" height="34" viewBox="0 0 34 34" fill="none" xmlns="http://www.w3.org/2000/svg">
  <path d="M17.166 5.93262C16.8547 5.7666 16.4812 5.7666 16.1699 5.93262L1.82617 13.3701L1.7663 13.4006C1.03491 13.7729 1.0387 14.8192 1.77277 15.1862L1.79297 15.1963V24.1611C1.15796 24.5305 0.730469 25.2029 0.730469 25.9873C0.730469 27.1619 1.68091 28.1123 2.85547 28.1123C4.03003 28.1123 4.98047 27.1619 4.98047 25.9873C4.98047 25.2029 4.55298 24.5305 3.91797 24.1611V16.292L6.04297 17.3877V22.7998C6.04297 23.2688 6.25879 23.6921 6.50781 23.9619C6.75684 24.2317 7.05981 24.3936 7.37109 24.5596C7.9978 24.8875 8.74072 25.1199 9.66211 25.3232C11.5049 25.7341 13.9619 25.9873 16.668 25.9873C19.374 25.9873 21.8311 25.7341 23.6738 25.3232C24.5952 25.1199 25.3381 24.8875 25.9648 24.5596C26.2761 24.3936 26.5791 24.2317 26.8281 23.9619C27.0771 23.6921 27.293 23.2688 27.293 22.7998V17.3877L31.5098 15.2295L31.5854 15.191C32.3139 14.8201 32.3139 13.7795 31.5854 13.4086L31.5098 13.3701L17.166 5.93262ZM15.2853 8.77569C16.1521 8.32552 17.1838 8.32552 18.0506 8.77569L26.9611 13.4032C27.6833 13.7783 27.679 14.8129 26.9536 15.1819L26.7949 15.2627C26.5542 15.0095 26.2637 14.8228 25.9648 14.665C25.3423 14.3372 24.5952 14.1047 23.6738 13.9014C21.8352 13.4905 19.3865 13.2373 16.668 13.2373C13.9495 13.2373 11.5007 13.4905 9.66211 13.9014C8.74072 14.1047 7.99365 14.3372 7.37109 14.665C7.07227 14.8228 6.78174 15.0095 6.54102 15.2627L6.3823 15.1819C5.65698 14.8129 5.65266 13.7783 6.37486 13.4032L15.2853 8.77569ZM16.668 15.3623C19.262 15.3623 21.5945 15.5989 23.209 15.96C24.0142 16.1384 24.6616 16.3459 25.002 16.5244C25.1099 16.5825 25.1265 16.624 25.168 16.6572V20.708C24.7239 20.5461 24.2383 20.4009 23.6738 20.2764C21.8311 19.8655 19.374 19.6123 16.668 19.6123C13.9619 19.6123 11.5049 19.8655 9.66211 20.2764C9.09766 20.4009 8.61206 20.5461 8.16797 20.708V16.6572C8.20947 16.624 8.22608 16.5825 8.33398 16.5244C8.67432 16.3459 9.32178 16.1384 10.127 15.96C11.7415 15.5989 14.074 15.3623 16.668 15.3623ZM16.668 21.7373C19.2454 21.7373 21.5903 21.9739 23.209 22.335C23.8813 22.4844 24.3047 22.6421 24.6699 22.7998C24.3047 22.9575 23.8813 23.1152 23.209 23.2646C21.5903 23.6257 19.2454 23.8623 16.668 23.8623C14.0906 23.8623 11.7456 23.6257 10.127 23.2646C9.45459 23.1152 9.03125 22.9575 8.66602 22.7998C9.03125 22.6421 9.45459 22.4844 10.127 22.335C11.7456 21.9739 14.0906 21.7373 16.668 21.7373Z" fill="#5F8F96"/>
</svg>
