<svg width="30" height="30" viewBox="0 0 30 30" fill="none" xmlns="http://www.w3.org/2000/svg">
  <path fill-rule="evenodd" clip-rule="evenodd" d="M3.74731 5.07648C3.48455 5.33533 3.4375 5.52011 3.4375 5.625C3.4375 5.72989 3.48455 5.91467 3.74731 6.17352C4.01338 6.43563 4.44646 6.71483 5.05728 6.96933C6.2748 7.47662 8.02178 7.8125 10 7.8125C11.9782 7.8125 13.7253 7.47662 14.9428 6.96933C15.5535 6.71483 15.9866 6.43563 16.2528 6.17352C16.5155 5.91467 16.5625 5.72989 16.5625 5.625C16.5625 5.52011 16.5155 5.33533 16.2528 5.07648C15.9866 4.81438 15.5535 4.53518 14.9428 4.28067C13.7253 3.77338 11.9782 3.4375 10 3.4375C8.02178 3.4375 6.2748 3.77338 5.05728 4.28067C4.44646 4.53518 4.01338 4.81438 3.74731 5.07648ZM16.5625 8.25906C16.2821 8.42144 15.9804 8.56824 15.6639 8.70009C14.1669 9.32381 12.1639 9.6875 10 9.6875C7.83609 9.6875 5.83306 9.32381 4.33613 8.70009C4.01968 8.56824 3.71783 8.42144 3.4375 8.25906V10.625C3.4375 10.7299 3.48455 10.9147 3.74731 11.1735C4.01338 11.4356 4.44646 11.7148 5.05728 11.9693C6.2748 12.4766 8.02178 12.8125 10 12.8125C11.9782 12.8125 13.7253 12.4766 14.9428 11.9693C15.5535 11.7148 15.9866 11.4356 16.2528 11.1735C16.5155 10.9147 16.5625 10.7299 16.5625 10.625V8.25906ZM16.5625 13.259C16.2821 13.4215 15.9804 13.5683 15.6639 13.7001C14.1669 14.3239 12.1639 14.6875 10 14.6875C7.83609 14.6875 5.83306 14.3239 4.33613 13.7001C4.01968 13.5683 3.71783 13.4215 3.4375 13.259V15.625C3.4375 15.7299 3.48455 15.9146 3.74731 16.1735C4.01338 16.4356 4.44646 16.7149 5.05728 16.9694C6.2748 17.4766 8.02178 17.8125 10 17.8125C10.7983 17.8125 11.5626 17.7577 12.272 17.6579C12.747 17.1271 13.4149 16.7064 14.1494 16.3803C14.851 16.0688 15.6691 15.8188 16.5625 15.6392V13.259ZM18.4375 15.377V5.625C18.4375 4.86695 18.0649 4.22964 17.5685 3.74074C17.0755 3.2551 16.4103 2.86091 15.6639 2.54991C14.1669 1.92618 12.1639 1.5625 10 1.5625C7.83609 1.5625 5.83306 1.92618 4.33613 2.54991C3.5897 2.86091 2.92444 3.2551 2.43146 3.74074C1.93519 4.22964 1.5625 4.86695 1.5625 5.625V20.625C1.5625 21.383 1.93519 22.0204 2.43146 22.5093C2.92444 22.9949 3.5897 23.3891 4.33613 23.7001C5.83306 24.3239 7.83609 24.6875 10 24.6875C10.5384 24.6875 11.0653 24.665 11.5758 24.6219C11.6464 25.2721 11.99 25.8244 12.4315 26.2593C12.9245 26.7449 13.5898 27.1391 14.3361 27.4501C15.8331 28.0739 17.8361 28.4375 20 28.4375C22.1639 28.4375 24.1669 28.0739 25.6639 27.4501C26.4103 27.1391 27.0755 26.7449 27.5685 26.2593C28.0649 25.7704 28.4375 25.133 28.4375 24.375V19.375C28.4375 18.617 28.0649 17.9796 27.5685 17.4908C27.0755 17.0051 26.4103 16.6109 25.6639 16.2999C24.1669 15.6761 22.1639 15.3125 20 15.3125C19.4663 15.3125 18.9439 15.3346 18.4375 15.377ZM26.5625 22.009V24.375C26.5625 24.4799 26.5155 24.6646 26.2528 24.9235C25.9866 25.1856 25.5535 25.4649 24.9428 25.7194C23.7253 26.2266 21.9783 26.5625 20 26.5625C18.0218 26.5625 16.2748 26.2266 15.0573 25.7194C14.4465 25.4649 14.0134 25.1856 13.7473 24.9235C13.4845 24.6646 13.4375 24.4799 13.4375 24.375V22.009C13.7179 22.1715 14.0196 22.3183 14.3361 22.4501C15.8331 23.0739 17.8361 23.4375 20 23.4375C22.1639 23.4375 24.1669 23.0739 25.6639 22.4501C25.9804 22.3183 26.2821 22.1715 26.5625 22.009ZM11.5625 19.623V22.7407C11.0613 22.7876 10.5383 22.8125 10 22.8125C8.02178 22.8125 6.2748 22.4766 5.05728 21.9694C4.44646 21.7149 4.01338 21.4356 3.74731 21.1735C3.48455 20.9146 3.4375 20.7299 3.4375 20.625V18.259C3.71783 18.4215 4.01968 18.5683 4.33613 18.7001C5.83306 19.3239 7.83609 19.6875 10 19.6875C10.5336 19.6875 11.0561 19.6654 11.5625 19.623ZM13.4375 19.375C13.4375 19.4799 13.4845 19.6646 13.7473 19.9235C14.0134 20.1856 14.4465 20.4649 15.0573 20.7194C16.2748 21.2266 18.0218 21.5625 20 21.5625C21.9783 21.5625 23.7253 21.2266 24.9428 20.7194C25.5535 20.4649 25.9866 20.1856 26.2528 19.9235C26.5155 19.6646 26.5625 19.4799 26.5625 19.375C26.5625 19.2701 26.5155 19.0854 26.2528 18.8265C25.9866 18.5644 25.5535 18.2851 24.9428 18.0306C23.7253 17.5234 21.9783 17.1875 20 17.1875C19.1675 17.1875 18.3718 17.247 17.6366 17.3554C16.5583 17.5141 15.6283 17.7751 14.9103 18.0939C14.1734 18.4211 13.7456 18.7708 13.5559 19.0524C13.4604 19.194 13.4375 19.2986 13.4375 19.375Z" fill="#5F8F96"/>
</svg>
