<svg width="30" height="30" viewBox="0 0 30 30" fill="none" xmlns="http://www.w3.org/2000/svg">
  <path fill-rule="evenodd" clip-rule="evenodd"
        d="M25 10V6.25H22.5V7.5H20V6.25H10V7.5H7.5V6.25H5V10H25ZM25 12.5H5V25H25V12.5ZM22.5 3.75H25C26.3807 3.75 27.5 4.86929 27.5 6.25V25C27.5 26.3807 26.3807 27.5 25 27.5H5C3.61929 27.5 2.5 26.3807 2.5 25V6.25C2.5 4.86929 3.61929 3.75 5 3.75H7.5V2.5H10V3.75H20V2.5H22.5V3.75ZM13.75 19.4822L19.1161 14.1161L20.8839 15.8839L13.75 23.0178L9.11612 18.3839L10.8839 16.6161L13.75 19.4822Z"
        fill="#5F8F96"/>
</svg>
